<?xml version="1.0" standalone="no"?>
<!DOCTYPE svg PUBLIC "-//W3C//DTD SVG 1.1//EN" "http://www.w3.org/Graphics/SVG/1.1/DTD/svg11.dtd" >
<svg xmlns="http://www.w3.org/2000/svg">
<metadata></metadata>
<defs>
<font id="superclarendonlight" horiz-adv-x="878" >
<font-face units-per-em="1000" ascent="775" descent="-225" />
<missing-glyph horiz-adv-x="345" />
<glyph unicode="&#x28;C&#x29;" horiz-adv-x="923" d="M871 368q0 -160 -114 -272t-289 -112q-181 0 -294.5 111t-113.5 273q0 165 119 278t289 113t286.5 -111.5t116.5 -279.5zM469 707q-150 0 -246 -97t-96 -242q0 -76 29 -140.5t77.5 -106.5t109.5 -65.5t126 -23.5q81 0 147 30.5t106.5 79.5t62 107.5t21.5 118.5 q0 152 -100.5 245.5t-236.5 93.5zM591 324l36 -8q-9 -58 -47 -96t-108 -38q-80 0 -129 47.5t-49 137.5q0 95 51.5 145.5t133.5 50.5q60 0 102 -31t42 -66q0 -19 -11.5 -31t-31.5 -12q-19 0 -30.5 11.5t-11.5 28.5q0 24 18 34q-29 26 -73 26q-117 0 -117 -147 q0 -77 32.5 -115t80.5 -38q95 0 112 101z" />
<glyph unicode="&#x28;R&#x29;" horiz-adv-x="703" d="M666 460q0 -125 -87 -210t-226 -85q-141 0 -228.5 84.5t-87.5 210.5t92 212.5t224 86.5q133 0 223 -85t90 -214zM603 460q0 111 -74.5 179t-175.5 68q-111 0 -182 -71t-71 -176q0 -112 75.5 -180t177.5 -68q118 0 184 75t66 173zM522 387v-11q0 -56 -58 -56q-64 0 -64 54 v35q0 46 -59 46h-39v-83q0 -27 64 -27v-20h-176v20q52 0 52 27v198q0 26 -52 26v22h151q135 0 135 -80q0 -66 -81 -71q65 -6 65 -58v-38q0 -25 18 -25q19 0 19 25v16h25zM345 583h-43v-98h43q69 0 69 46q0 52 -69 52z" />
<glyph horiz-adv-x="0" />
<glyph horiz-adv-x="333" />
<glyph horiz-adv-x="345" />
<glyph unicode=" "  horiz-adv-x="345" />
<glyph unicode="&#x09;" horiz-adv-x="345" />
<glyph unicode="&#xa0;" horiz-adv-x="345" />
<glyph unicode="!" horiz-adv-x="326" d="M179 210h-37q-6 125 -14 232.5t-13 162t-5 74.5q0 42 13.5 57.5t39.5 15.5q51 0 51 -70q0 -24 -4.5 -76.5t-13.5 -163.5t-17 -232zM228 59q0 -28 -19.5 -47.5t-47.5 -19.5t-47.5 19.5t-19.5 47.5t19.5 47.5t47.5 19.5t47.5 -19.5t19.5 -47.5z" />
<glyph unicode="&#x22;" horiz-adv-x="350" d="M279 431h-37q-6 77 -14.5 143.5t-13.5 100.5t-5 47q0 26 13.5 35.5t39.5 9.5q51 0 51 -43q0 -15 -4.5 -48t-13 -101.5t-16.5 -143.5zM106 431h-37q-6 77 -14 144t-13 100.5t-5 46.5q0 26 13.5 35.5t39.5 9.5q50 0 50 -43q0 -15 -4.5 -48t-13 -101.5t-16.5 -143.5z" />
<glyph unicode="#" horiz-adv-x="548" d="M458 666l-35 -197h82v-54h-91l-32 -176h90v-55h-100l-33 -184h-55l33 184h-125l-33 -184h-55l33 184h-90v55h100l32 176h-99v54h109l35 197h54l-35 -197h126l35 197h54zM359 415h-125l-32 -176h125z" />
<glyph unicode="$" horiz-adv-x="520" d="M453 617v-182l-35 -7q-15 131 -136 154v-164q35 -7 56 -12t50 -17t45 -26.5t28 -39t12 -56.5q0 -68 -48.5 -104.5t-142.5 -36.5v-126h-33v128q-68 8 -109 42q-19 15 -30 15t-15 -19l-7 -34h-34v194l34 6q9 -66 53 -110.5t108 -55.5v172q-36 7 -56.5 12.5t-50.5 17.5 t-46 27t-28 40t-12 58q0 63 46 98t130 35q11 0 17 -1v118h33v-123q56 -12 86 -35q20 -16 32 -16q10 0 13 14l5 34h35zM282 331v-168q119 0 119 80q0 38 -30.5 56.5t-88.5 31.5zM249 425v160q-5 1 -15 1q-46 0 -75.5 -18t-29.5 -54q0 -39 30.5 -57.5t89.5 -31.5z" />
<glyph unicode="%" horiz-adv-x="797" d="M649 682l-419 -682h-71l415 682h75zM225 682q71 0 115 -39.5t44 -124.5q0 -76 -43.5 -121t-121.5 -45q-70 0 -114 38t-44 120q0 80 41.5 126t122.5 46zM226 650q-49 0 -74 -33t-25 -88q0 -81 23.5 -113t68.5 -32q98 0 98 130q0 75 -24 105.5t-67 30.5zM583 330 q71 0 115 -39.5t44 -124.5q0 -76 -43.5 -121t-121.5 -45q-70 0 -114 38t-44 120q0 80 41.5 126t122.5 46zM584 298q-49 0 -74 -33t-25 -88q0 -81 23.5 -113t68.5 -32q98 0 98 130q0 75 -24 105.5t-67 30.5z" />
<glyph unicode="&#x26;" horiz-adv-x="907" d="M832 443v-35q-89 0 -89 -46q0 -68 -37 -142.5t-102 -131.5q57 -43 104 -43q80 0 80 92v62h43v-62q0 -153 -140 -153q-72 0 -152 56q-96 -56 -200 -56q-124 0 -200.5 54t-76.5 159q0 49 15 87t44.5 65t58 44t71.5 35q-37 95 -37 154q0 72 45.5 124.5t130.5 52.5 q70 0 113.5 -39.5t43.5 -110.5q0 -39 -14 -70t-44 -55t-55 -38.5t-69 -35.5q81 -167 187 -276q108 98 108 228q0 46 -90 46v35h262zM279 366q-110 -62 -110 -155q0 -74 47 -120t123 -46q73 0 144 40q-121 112 -204 281zM341 465q62 28 95.5 61.5t33.5 89.5q0 45 -20 64.5 t-60 19.5t-62 -31.5t-22 -71.5q0 -46 35 -132z" />
<glyph unicode="'" horiz-adv-x="177" d="M106 431h-37q-6 77 -14 144t-13 100.5t-5 46.5q0 26 13.5 35.5t39.5 9.5q50 0 50 -43q0 -15 -4.5 -48t-13 -101.5t-16.5 -143.5z" />
<glyph unicode="(" horiz-adv-x="349" d="M285 822l27 -45q-96 -44 -142 -167t-46 -289q0 -165 47 -296.5t141 -183.5l-29 -46q-126 75 -186 199t-60 327q0 204 60.5 320t187.5 181z" />
<glyph unicode=")" horiz-adv-x="349" d="M37 777l27 45q127 -65 187.5 -181t60.5 -320q0 -203 -60 -327t-186 -199l-29 46q94 52 141 183.5t47 296.5q0 166 -46 289t-142 167z" />
<glyph unicode="*" horiz-adv-x="621" d="M396 553h63q74 0 74 -42q0 -14 -11 -24.5t-30 -10.5q-23 0 -76 27t-71 27q-7 0 -7 -9q0 -13 44 -63t44 -69q0 -15 -11.5 -26t-25.5 -11q-24 0 -39.5 24.5t-20.5 54.5t-11 54.5t-15 24.5q-10 0 -17.5 -24.5t-12.5 -54.5t-19.5 -54.5t-36.5 -24.5q-17 0 -27.5 11t-10.5 27 q0 24 45.5 75t45.5 56q0 9 -12 9q-14 0 -67.5 -26.5t-78.5 -26.5q-19 0 -30 10.5t-11 25.5q0 42 82 42h79q26 0 26 9q0 12 -37 28t-74 35.5t-37 40.5q0 15 11 25t27 10q22 0 50 -28.5t50 -56.5t31 -28t9 15q0 23 -11 64t-11 61t10.5 31t27.5 11q15 0 27.5 -11.5t12.5 -30.5 t-14 -61t-14 -66q0 -13 10 -13q13 0 36.5 28t49.5 56.5t46 28.5q16 0 27.5 -11t11.5 -25q0 -21 -37.5 -42t-74.5 -37t-37 -25q1 -10 48 -10z" />
<glyph unicode="+" horiz-adv-x="567" d="M530 385v-60h-215v-199h-65v199h-213v60h213v198h65v-198h215z" />
<glyph unicode="," horiz-adv-x="324" d="M100 -154l-20 32q40 24 60.5 46t23.5 32.5t3 26.5q0 15 -14 15q-63 0 -63 52q0 66 68 66q86 0 86 -96q0 -104 -144 -174z" />
<glyph unicode="-" horiz-adv-x="336" d="M308 319v-65h-281v65h281z" />
<glyph unicode="." horiz-adv-x="304" d="M218 59q0 -28 -19.5 -47.5t-47.5 -19.5t-47.5 19.5t-19.5 47.5t19.5 47.5t47.5 19.5t47.5 -19.5t19.5 -47.5z" />
<glyph unicode="/" horiz-adv-x="405" d="M376 744l-293 -774h-57l294 774h56z" />
<glyph unicode="0" horiz-adv-x="678" d="M339 682q149 0 216.5 -81t67.5 -275q0 -186 -67.5 -264t-216.5 -78t-216.5 78t-67.5 264q0 194 67.5 275t216.5 81zM339 637q-53 0 -90 -23t-56.5 -67t-28 -97t-8.5 -123q0 -162 38 -229t145 -67t145 67t38 229q0 70 -8.5 123t-28 97t-56.5 67t-90 23z" />
<glyph unicode="1" horiz-adv-x="448" d="M248 686l46 -11q-6 -54 -6 -82v-516q0 -43 106 -43v-34h-326v34q124 0 124 43v460h-133l-4 30q140 3 193 119z" />
<glyph unicode="2" horiz-adv-x="631" d="M540 169h34q3 -17 3 -48q0 -132 -115 -132q-36 0 -67.5 12t-53 26t-59.5 26t-84 12q-69 0 -118 -65h-25q13 66 42.5 117t65 82t76 56t78.5 46t68.5 44.5t49 60t18.5 85.5q0 61 -37.5 102.5t-115.5 41.5q-58 0 -89.5 -18.5t-54.5 -49.5q22 -2 37.5 -17t15.5 -38 q0 -28 -17.5 -46t-47.5 -18q-29 0 -45.5 18.5t-16.5 49.5q0 60 55 113t160 53q113 0 186 -52.5t73 -161.5q0 -56 -28 -100.5t-71 -70.5t-94.5 -51.5t-97.5 -45t-82 -49t-46 -65.5q59 51 137 51q45 0 104 -31t87 -31q59 0 75 94z" />
<glyph unicode="3" horiz-adv-x="629" d="M256 348l6 34q80 5 132 39.5t52 98.5q0 49 -36.5 82t-110.5 33q-99 0 -141 -68q22 -2 38 -17t16 -38q0 -28 -17.5 -46t-47.5 -18q-29 0 -45.5 18.5t-16.5 49.5q0 61 55 113.5t170 52.5q104 0 171 -42t67 -124q0 -58 -42 -94.5t-131 -54.5q95 -15 147 -62.5t52 -118.5 q0 -101 -77 -151.5t-209 -50.5q-104 0 -171 50.5t-67 105.5q0 31 16.5 49.5t46.5 18.5q29 0 46.5 -18t17.5 -46q0 -18 -12.5 -34t-29.5 -17q13 -27 59.5 -44.5t105.5 -17.5q83 0 127 38.5t44 109.5q0 80 -53 120.5t-162 48.5z" />
<glyph unicode="4" horiz-adv-x="650" d="M511 682v-417h91l-12 -72h-79v-114q0 -45 91 -45v-34h-308v34q123 0 123 45v114h-372v44l379 445h87zM417 595l-280 -330h280v330z" />
<glyph unicode="5" horiz-adv-x="640" d="M546 689l1 -23q-78 -88 -206 -88q-112 0 -174 26l-16 -166q79 39 182 39q58 0 103.5 -15.5t72.5 -40t45 -57t24.5 -63.5t6.5 -63q0 -127 -80.5 -190.5t-216.5 -63.5q-104 0 -171 50.5t-67 105.5q0 31 16.5 49.5t46.5 18.5q29 0 46.5 -18t17.5 -46q0 -18 -12.5 -34 t-29.5 -17q13 -27 59.5 -44.5t105.5 -17.5q182 0 182 198q0 78 -45.5 133.5t-129.5 55.5q-97 0 -185 -41l-35 22l26 283q100 -16 252 -16q94 0 181 23z" />
<glyph unicode="6" horiz-adv-x="627" d="M149 345q63 86 201 86q104 0 162.5 -59t58.5 -146q0 -242 -261 -242q-130 0 -192.5 83.5t-62.5 274.5q0 70 14.5 129t46 107.5t87.5 76t132 27.5q103 0 163.5 -49.5t60.5 -106.5q0 -31 -16.5 -49.5t-46.5 -18.5q-29 0 -46.5 18t-17.5 46q0 18 12.5 34t29.5 17 q-13 28 -53 45t-98 17q-87 0 -130.5 -66.5t-43.5 -223.5zM315 384q-67 0 -112 -45.5t-45 -129.5t45 -131.5t112 -47.5q68 0 115 47.5t47 132.5t-46.5 129.5t-115.5 44.5z" />
<glyph unicode="7" horiz-adv-x="571" d="M522 682l24 -38q-143 -156 -191 -248t-48 -227q0 -17 4.5 -53.5t4.5 -54.5q0 -74 -57 -74q-30 0 -47 34t-17 91q0 244 231 456q-35 -20 -78 -20q-45 0 -104 31t-87 31q-59 0 -75 -94h-34q-3 17 -3 48q0 132 115 132q36 0 67.5 -12t53 -26t59.5 -26t84 -12q58 0 98 62z " />
<glyph unicode="8" horiz-adv-x="664" d="M420 370q90 -16 139.5 -67.5t49.5 -122.5q0 -97 -75.5 -146.5t-200.5 -49.5q-126 0 -202 48.5t-76 142.5q0 65 46.5 114.5t133.5 65.5q-65 19 -108.5 62t-43.5 99q0 82 68 124t181 42t181 -42t68 -124q0 -51 -44.5 -90t-116.5 -56zM286 332q-70 -20 -99 -57t-29 -108 q0 -63 45 -99.5t130 -36.5q173 0 173 136q0 30 -11.5 54t-26 38.5t-41.5 27.5t-45 18.5t-51 14t-45 12.5zM358 390q64 17 92 43.5t28 83.5q0 51 -34.5 84.5t-111.5 33.5q-146 0 -146 -118q0 -81 172 -127z" />
<glyph unicode="9" horiz-adv-x="627" d="M477 321q-63 -86 -201 -86q-104 0 -162.5 59t-58.5 146q0 242 261 242q130 0 192.5 -83.5t62.5 -274.5q0 -70 -14.5 -129t-46 -107.5t-87.5 -76t-132 -27.5q-103 0 -165.5 50t-62.5 106q0 31 16.5 49.5t46.5 18.5q29 0 46.5 -18t17.5 -46q0 -18 -12.5 -34t-29.5 -17 q13 -28 55 -45t100 -17q87 0 130.5 66.5t43.5 223.5zM311 636q-68 0 -115 -47.5t-47 -132.5t46.5 -129.5t115.5 -44.5q67 0 112 45.5t45 129.5t-45 131.5t-112 47.5z" />
<glyph unicode=":" horiz-adv-x="304" d="M218 59q0 -28 -19.5 -47.5t-47.5 -19.5t-47.5 19.5t-19.5 47.5t19.5 47.5t47.5 19.5t47.5 -19.5t19.5 -47.5zM218 397q0 -28 -19.5 -47.5t-47.5 -19.5t-47.5 19.5t-19.5 47.5t19.5 47.5t47.5 19.5t47.5 -19.5t19.5 -47.5z" />
<glyph unicode=";" horiz-adv-x="324" d="M100 -154l-20 32q40 24 60.5 46t23.5 32.5t3 26.5q0 15 -14 15q-63 0 -63 52q0 66 68 66q86 0 86 -96q0 -104 -144 -174zM228 397q0 -28 -19.5 -47.5t-47.5 -19.5t-47.5 19.5t-19.5 47.5t19.5 47.5t47.5 19.5t47.5 -19.5t19.5 -47.5z" />
<glyph unicode="&#x3c;" horiz-adv-x="475" d="M409 539l29 -31l-255 -157l253 -161l-27 -28l-372 189z" />
<glyph unicode="=" horiz-adv-x="499" d="M462 496v-62h-425v62h425zM462 274v-63h-425v63h425z" />
<glyph unicode="&#x3e;" horiz-adv-x="473" d="M436 351l-371 -189l-28 28l251 161l-251 157l27 32z" />
<glyph unicode="?" horiz-adv-x="551" d="M285 233h-63q7 56 27.5 101.5t44 74.5t46.5 55.5t38 58t15 68.5q0 51 -28 85.5t-90 34.5q-73 0 -106.5 -18.5t-48.5 -50.5q26 0 44.5 -16.5t18.5 -40.5q0 -29 -18.5 -47.5t-51.5 -18.5q-32 0 -50 19.5t-18 50.5q0 29 10.5 56t34.5 54t72 43.5t114 16.5q109 0 169 -35.5 t60 -124.5q0 -47 -20 -85t-49.5 -65t-60.5 -54.5t-56.5 -68.5t-33.5 -93zM325 59q0 -28 -19.5 -47.5t-47.5 -19.5t-47.5 19.5t-19.5 47.5t19.5 47.5t47.5 19.5t47.5 -19.5t19.5 -47.5z" />
<glyph unicode="@" horiz-adv-x="967" d="M691 449l-34 -248q-1 -7 -1 -21q0 -32 11 -46t39 -14q45 0 75 50t30 162q0 144 -83.5 227.5t-225.5 83.5q-158 0 -245 -106t-87 -271q0 -177 94 -287t262 -110q134 0 247 89l25 -28q-130 -102 -294 -102q-205 0 -316.5 115.5t-111.5 322.5q0 87 27 163t79 134t134 91.5 t184 33.5q191 0 292 -93.5t101 -257.5q0 -69 -18.5 -120.5t-48 -78t-60.5 -39t-63 -12.5q-45 0 -65.5 18.5t-29.5 53.5q-16 -34 -51.5 -55t-82.5 -21q-70 0 -114 44t-44 128q0 100 53.5 152t137.5 52q83 0 118 -68l32 58h34zM503 428q-46 0 -77.5 -47.5t-31.5 -125.5 q0 -82 20 -111t75 -29q50 0 75.5 53.5t25.5 132.5q0 70 -20.5 98.5t-66.5 28.5z" />
<glyph unicode="A" d="M489 743l269 -678q12 -30 83 -30v-35h-330v35h99q28 0 28 20l-2 10l-53 135h-343l-49 -127q-2 -10 -2 -12q0 -26 44 -26h67v-35h-263v36q76 0 88 28l276 679h88zM410 639l-147 -379h296z" />
<glyph unicode="B" horiz-adv-x="811" d="M37 743h402q55 0 97 -7t81.5 -25.5t61 -57.5t21.5 -96q0 -56 -41.5 -98t-101.5 -60q90 -9 141 -55t51 -123q0 -221 -285 -221h-427v35q89 0 89 46v581q0 46 -89 46v35zM477 365h-248v-305h248q161 0 161 167q0 138 -161 138zM451 683h-222v-268h222q66 0 104 32t38 99 q0 68 -37.5 102.5t-104.5 34.5z" />
<glyph unicode="C" horiz-adv-x="795" d="M740 743v-246l-45 -4q-27 93 -95 150t-167 57q-96 0 -162.5 -47t-95 -120.5t-28.5 -167.5q0 -155 77.5 -237.5t210.5 -82.5q109 0 179 57.5t100 155.5l44 -23q-15 -49 -40 -91t-64 -79.5t-97 -59t-129 -21.5q-174 0 -282.5 97t-108.5 283q0 195 109 295t287 100 q78 0 139 -27t91 -64l28 75h49z" />
<glyph unicode="D" horiz-adv-x="827" d="M37 743h380q94 0 157 -14t113.5 -51.5t74 -108t23.5 -178.5q0 -212 -92 -301.5t-276 -89.5h-380v35q89 0 89 46v581q0 46 -89 46v35zM433 688h-204v-633h204q244 0 244 333q0 153 -56 226.5t-188 73.5z" />
<glyph unicode="E" horiz-adv-x="744" d="M674 743v-226l-40 -3q-18 174 -145 174h-260v-273h152q74 0 83 129h38l-15 -312h-36q-10 133 -77 133h-145v-310h224q179 0 203 237l42 -7l-24 -285h-637v35q89 0 89 46v581q0 46 -89 46v35h637z" />
<glyph unicode="F" horiz-adv-x="721" d="M685 743v-226l-40 -3q-23 174 -145 174h-271v-299h163q74 0 83 139h38l-15 -332h-36q-11 143 -77 143h-156v-258q0 -46 125 -46v-35h-317v35q89 0 89 46v581q0 46 -89 46v35h648z" />
<glyph unicode="G" horiz-adv-x="879" d="M742 743v-246l-44 -4q-27 93 -95.5 150t-167.5 57q-143 0 -215.5 -95t-72.5 -240q0 -155 79 -237.5t211 -82.5q91 0 156.5 50t65.5 114v56q0 46 -90 46v35h282v-35q-90 0 -90 -46v-265h-77l-23 87q-95 -103 -247 -103q-105 0 -188.5 40t-136 128t-52.5 212q0 195 110 295 t288 100q78 0 139.5 -27.5t90.5 -63.5l28 75h49z" />
<glyph unicode="H" horiz-adv-x="874" d="M838 743v-35q-90 0 -90 -46v-581q0 -46 90 -46v-35h-304v35q111 0 111 46v284h-416v-284q0 -46 111 -46v-35h-303v35q89 0 89 46v581q0 46 -89 46v35h303v-35q-111 0 -111 -46v-247h416v247q0 46 -111 46v35h304z" />
<glyph unicode="I" horiz-adv-x="377" d="M329 743v-35q-89 0 -89 -46v-581q0 -46 89 -46v-35h-282v35q90 0 90 46v581q0 46 -90 46v35h282z" />
<glyph unicode="J" horiz-adv-x="630" d="M602 743v-35q-90 0 -90 -46v-417q0 -127 -63 -194t-188 -67q-112 0 -168.5 50.5t-56.5 116.5q0 33 18 53t50 20q33 0 51.5 -18.5t18.5 -47.5q0 -24 -15.5 -41t-40.5 -19q7 -27 48.5 -46.5t86.5 -19.5q156 0 156 197v433q0 46 -89 46v35h282z" />
<glyph unicode="K" horiz-adv-x="900" d="M783 743v-35q-58 0 -114 -49l-198 -175l264 -398q34 -51 101 -51h33v-35h-368v35h99q26 0 26 20q0 14 -11 31l-218 332l-168 -149v-188q0 -46 89 -46v-35h-281v35q89 0 89 46v581q0 46 -89 46v35h281v-35q-89 0 -89 -46v-321l344 304q18 15 18 32q0 13 -12 22t-34 9h-61 v35h299z" />
<glyph unicode="L" horiz-adv-x="732" d="M340 743v-35q-111 0 -111 -46v-607h221q94 0 142.5 51t60.5 186l42 -7l-24 -285h-634v35q89 0 89 46v581q0 46 -89 46v35h303z" />
<glyph unicode="M" horiz-adv-x="1018" d="M981 743v-35q-90 0 -90 -46v-581q0 -46 90 -46v-35h-282v35q89 0 89 46v571l-253 -652h-96l-253 652v-571q0 -46 89 -46v-35h-238v35q89 0 89 46v581q0 46 -89 46v35h232l245 -649l245 649h222z" />
<glyph unicode="N" horiz-adv-x="870" d="M844 743v-35q-89 0 -89 -46v-662h-129l-440 640v-559q0 -46 89 -46v-35h-238v35q89 0 89 46v581q0 46 -89 46v35h211l447 -654v573q0 46 -89 46v35h238z" />
<glyph unicode="O" horiz-adv-x="832" d="M423 759q83 0 148.5 -20.5t116.5 -65t79 -120.5t28 -181q0 -180 -99 -284t-288 -104q-80 0 -145 20t-117 62.5t-80.5 116t-28.5 173.5q0 189 95.5 296t290.5 107zM428 700q-145 0 -214 -80.5t-69 -217.5q0 -103 17 -174t52.5 -110.5t82 -56t111.5 -16.5q153 0 217 84.5 t64 235.5q0 97 -18 163.5t-54 103.5t-81.5 52.5t-107.5 15.5z" />
<glyph unicode="P" horiz-adv-x="735" d="M37 743h366q67 0 117.5 -10t92.5 -33.5t64 -67t22 -106.5t-22 -106.5t-64 -67t-92.5 -33.5t-117.5 -10h-174v-228q0 -46 111 -46v-35h-303v35q89 0 89 46v581q0 46 -89 46v35zM416 683h-187v-314h187q85 0 128 41t43 116t-43 116t-128 41z" />
<glyph unicode="Q" horiz-adv-x="849" d="M806 -26l23 -11q-13 -32 -47 -54t-77 -22q-101 0 -192 107q-46 -10 -105 -10q-80 0 -145 20t-117 62.5t-80.5 116t-28.5 173.5q0 189 95.5 296t290.5 107q83 0 148.5 -20.5t116.5 -65t79 -120.5t28 -181q0 -125 -49.5 -216t-145.5 -135q74 -74 150 -74q38 0 56 27z M556 75q133 67 133 290q0 97 -18 163.5t-54 103.5t-81.5 52.5t-107.5 15.5q-145 0 -214 -80.5t-69 -217.5q0 -148 37 -231q59 62 135 62q70 0 126.5 -41t112.5 -117zM196 144q59 -99 212 -99q36 0 61 4q-54 69 -94 99.5t-93 30.5q-42 0 -86 -35z" />
<glyph unicode="R" horiz-adv-x="784" d="M758 127v-38q0 -96 -100 -96q-111 0 -111 100v86q0 94 -29.5 140t-99.5 46h-189v-284q0 -46 111 -46v-35h-303v35q89 0 89 46v581q0 46 -89 46v35h381q43 0 77.5 -4t70 -15.5t59 -31.5t38.5 -54.5t15 -80.5q0 -72 -40 -115.5t-100 -56.5q56 -21 84 -67t28 -136v-103 q0 -43 32 -43q33 0 33 43v48h43zM430 683h-201v-268h201q66 0 103.5 32t37.5 99q0 68 -37.5 102.5t-103.5 34.5z" />
<glyph unicode="S" horiz-adv-x="684" d="M615 743v-270l-43 -9q-10 114 -81.5 175t-177.5 61q-192 0 -192 -130q0 -42 29 -68t75.5 -38.5t102.5 -21t112 -22t102.5 -34.5t75.5 -65t29 -108q0 -229 -290 -229q-114 0 -202 63q-16 11 -28 11q-22 0 -35 -30l-12 -28h-43v285l43 6q11 -107 87 -176.5t197 -69.5 q206 0 206 148q0 44 -29 71t-75.5 39t-102 19.5t-111.5 20t-102.5 34t-75.5 68t-29 114.5q0 39 12.5 72.5t41 63.5t81.5 47t126 17q109 0 193 -50q19 -12 37 -12q20 0 32 19l17 27h30z" />
<glyph unicode="T" horiz-adv-x="809" d="M773 743v-306l-40 -3q-7 103 -26.5 159t-51 75.5t-86.5 19.5h-112v-607q0 -46 90 -46v-35h-282v35q89 0 89 46v607h-113q-55 0 -86 -20t-50.5 -75t-27.5 -159l-40 3v306h736z" />
<glyph unicode="U" horiz-adv-x="854" d="M820 743v-35q-90 0 -90 -46v-359q0 -319 -301 -319q-303 0 -303 319v359q0 46 -89 46v35h303v-35q-111 0 -111 -46v-359q0 -135 48.5 -196.5t171.5 -61.5q124 0 173 61.5t49 196.5v359q0 46 -112 46v35h261z" />
<glyph unicode="V" d="M841 743v-36q-45 0 -63.5 -6.5t-24.5 -21.5l-276 -679h-88l-269 678q-12 30 -83 30v35h330v-35h-99q-29 0 -29 -17q0 -5 3 -13l226 -574l219 566q3 8 3 14q0 24 -45 24h-67v35h263z" />
<glyph unicode="W" horiz-adv-x="1223" d="M1187 743v-36q-68 0 -77 -28l-216 -679h-98l-187 545l-192 -545h-99l-210 678q-9 30 -71 30v35h296v-35h-86q-26 0 -26 -17q0 -6 4 -13l172 -574l180 534l-13 40q-10 30 -72 30v35h296v-35h-85q-26 0 -26 -17q0 -5 3 -13l195 -574l168 566q2 10 2 14q0 24 -39 24h-58v35 h239z" />
<glyph unicode="X" horiz-adv-x="865" d="M810 743v-35q-67 0 -109 -49l-213 -251l240 -322q37 -51 100 -51v-35h-335v35h100q27 0 27 20q0 15 -12 31l-184 252l-198 -240q-16 -19 -16 -37q0 -26 45 -26h89v-35h-307v35q66 0 108 49l250 296l-205 278q-37 50 -103 50v35h311v-35h-75q-28 0 -28 -20q0 -13 13 -30 l151 -209l162 196q15 18 15 37q0 26 -43 26h-66v35h283z" />
<glyph unicode="Y" horiz-adv-x="821" d="M789 743v-36q-70 0 -88 -28l-246 -365v-233q0 -46 100 -46v-35h-303v35q100 0 100 46v233l-241 364q-21 30 -83 30v35h330v-35h-99q-30 0 -30 -20q0 -6 4 -13l204 -305l198 300q4 7 4 14q0 24 -46 24h-67v35h263z" />
<glyph unicode="Z" horiz-adv-x="722" d="M665 743v-68l-527 -620h295q88 0 139.5 65.5t63.5 185.5l44 -7l-25 -299h-627v69l539 619h-310q-75 0 -113 -63t-51 -191l-40 3v306h612z" />
<glyph unicode="[" horiz-adv-x="358" d="M322 830v-47h-145v-934h145v-52h-213v1033h213z" />
<glyph unicode="\" horiz-adv-x="405" d="M82 744l294 -774h-58l-292 774h56z" />
<glyph unicode="]" horiz-adv-x="364" d="M249 830v-1033h-212v52h145v934h-145v47h212z" />
<glyph unicode="^" horiz-adv-x="403" d="M226 743l140 -280h-51l-113 229l-114 -229h-51l141 280h48z" />
<glyph unicode="_" horiz-adv-x="595" d="M581 -75v-45h-566v45h566z" />
<glyph unicode="`" horiz-adv-x="313" d="M276 601l-20 -29q-31 14 -92 32t-94 33.5t-33 38.5q0 42 48 42q23 0 51 -18t68 -49.5t72 -49.5z" />
<glyph unicode="a" horiz-adv-x="644" d="M520 346v-263q0 -45 30 -45q14 0 21.5 13.5t7.5 31.5v68h36v-58q0 -53 -18.5 -76.5t-64.5 -23.5q-75 0 -86 101q-24 -46 -86.5 -78.5t-136.5 -32.5q-184 0 -184 146q0 39 18.5 68t45.5 46t71 30.5t80.5 19.5t89.5 15.5t84 16.5v31q0 59 -31 95t-93 36q-115 0 -162 -45 q21 -2 35.5 -16t14.5 -34q0 -26 -16 -42t-45 -16t-44.5 17t-15.5 45q0 50 63 91.5t167 41.5q102 0 160.5 -41t58.5 -142zM429 127v162q-172 -34 -237 -64.5t-65 -91.5q0 -91 126 -91q58 0 106 25.5t70 59.5z" />
<glyph unicode="b" horiz-adv-x="643" d="M182 770v-319q20 35 65 56.5t103 21.5q255 0 255 -267q0 -279 -265 -279q-76 0 -125.5 37.5t-58.5 73.5l-32 -94h-34v692q0 45 -88 45v33h180zM343 487q-90 0 -130.5 -64.5t-40.5 -166.5t40.5 -166.5t130.5 -64.5q89 0 131.5 65t42.5 166t-42.5 166t-131.5 65z" />
<glyph unicode="c" horiz-adv-x="560" d="M480 181l41 -7q-14 -82 -68 -136.5t-155 -54.5q-115 0 -185 68t-70 197q0 136 73.5 208.5t192.5 72.5q86 0 145.5 -42t59.5 -91q0 -28 -16 -45t-44 -17t-44.5 16.5t-16.5 41.5q0 20 15 34t36 16q-47 45 -130 45q-180 0 -180 -226q0 -119 50 -177.5t125 -58.5q66 0 112 38 t59 118z" />
<glyph unicode="d" horiz-adv-x="688" d="M561 770v-691q0 -45 89 -45v-34h-143l-8 83q-49 -100 -203 -100q-109 0 -183 68t-74 204q0 72 23.5 127t63.5 86t86.5 46t98.5 15q110 0 159 -52v215q0 45 -88 45v33h179zM308 487q-90 0 -134 -65t-44 -166t44 -166t134 -65t130.5 64.5t40.5 166.5t-40.5 166.5 t-130.5 64.5z" />
<glyph unicode="e" horiz-adv-x="588" d="M549 271h-416q0 -116 43.5 -181t126.5 -65q149 0 186 136l40 -15q-52 -163 -226 -163q-50 0 -93 12.5t-82.5 41.5t-62 84.5t-22.5 133.5q0 123 71 198.5t195 75.5q115 0 177.5 -68t62.5 -190zM134 309h321q0 80 -40.5 129t-110.5 49q-69 0 -115 -43.5t-55 -134.5z" />
<glyph unicode="f" horiz-adv-x="438" d="M379 509l-5 -58q-116 11 -156 11v-383q0 -45 135 -45v-34h-313v34q88 0 88 45v383h-89v34q44 9 87 13v129q0 142 165 142q72 0 119 -29.5t47 -78.5q0 -27 -14 -46t-46 -19q-31 0 -46.5 16.5t-15.5 38.5q0 46 52 55q-23 27 -96 27q-32 0 -53 -20.5t-21 -61.5v-153h162z " />
<glyph unicode="g" horiz-adv-x="735" d="M166 20l8 -27q-22 -5 -33 -25t-11 -43q0 -46 53.5 -79t135.5 -33q95 0 149 34t54 93q0 45 -36.5 70t-131.5 34q-162 17 -212 33t-50 58q0 24 16 43.5t39 27.5q-66 35 -66 126q0 177 230 177q114 0 170 -38q38 48 107 48q41 0 79 -28.5t38 -86.5q0 -34 -16 -52t-44 -18 t-44 15.5t-16 38.5q0 25 17.5 39.5t48.5 14.5q-7 16 -30.5 27t-48.5 11q-28 0 -66 -29q47 -43 47 -111q0 -88 -67.5 -131.5t-174.5 -43.5q-85 0 -130 19q-24 -3 -24 -25q0 -17 14 -26t57 -16.5t137 -17.5q74 -8 123.5 -22t74 -34.5t33.5 -41.5t9 -50q0 -80 -75 -128 t-216 -48q-275 0 -275 137q0 52 37.5 80t89.5 28zM467 338q0 67 -42 98.5t-114 31.5q-154 0 -154 -131q0 -132 154 -132q75 0 115.5 33.5t40.5 99.5z" />
<glyph unicode="h" horiz-adv-x="717" d="M217 770v-363q101 112 225 112q74 0 111 -35t37 -114v-291q0 -45 89 -45v-34h-257v34q78 0 78 45v285q0 61 -18 87t-57 26q-56 0 -117 -42.5t-91 -99.5v-256q0 -45 78 -45v-34h-256v34q88 0 88 45v613q0 45 -87 45v33h177z" />
<glyph unicode="i" horiz-adv-x="344" d="M217 509v-430q0 -45 89 -45v-34h-267v34q88 0 88 45v351q0 46 -88 46v33h178zM233 684q0 -29 -20.5 -50t-49.5 -21t-50 21t-21 50t21 49.5t50 20.5t49.5 -20.5t20.5 -49.5z" />
<glyph unicode="j" horiz-adv-x="366" d="M275 509l1 -630q0 -58 -38.5 -86.5t-103.5 -28.5q-75 0 -116.5 29.5t-41.5 78.5q0 26 14 45.5t45 19.5t47 -16.5t16 -39.5q0 -45 -53 -54q25 -28 83 -28q28 0 42.5 16.5t14.5 43.5v571q0 46 -100 46v33h190zM292 684q0 -29 -20.5 -50t-49.5 -21t-50 21t-21 50t21 49.5 t50 20.5q28 0 49 -21t21 -49z" />
<glyph unicode="k" horiz-adv-x="707" d="M643 509v-33q-55 0 -100 -34l-161 -121l203 -253q27 -34 83 -34v-34h-292v34h82q22 0 22 13q0 11 -10 21l-158 201l-95 -71v-119q0 -45 89 -45v-34h-267v34q88 0 88 45v613q0 45 -88 45v33h178v-526l252 189q13 9 13 23q0 20 -26 20h-49v33h236z" />
<glyph unicode="l" horiz-adv-x="344" d="M217 770v-691q0 -45 89 -45v-34h-267v34q88 0 88 45v613q0 45 -88 45v33h178z" />
<glyph unicode="m" horiz-adv-x="1036" d="M909 370v-291q0 -45 88 -45v-34h-256v34q77 0 77 45v285q0 61 -15 87t-48 26q-51 0 -102.5 -38.5t-88.5 -103.5v-256q0 -45 76 -45v-34h-244v34q78 0 78 45v285q0 61 -15.5 87t-49.5 26q-53 0 -105.5 -39t-85.5 -103v-256q0 -45 78 -45v-34h-256v34q88 0 88 45v351 q0 46 -89 46v33h179v-106q92 116 215 116q112 0 129 -118q38 48 94.5 83t120.5 35q65 0 98.5 -35t33.5 -114z" />
<glyph unicode="n" horiz-adv-x="733" d="M606 370v-291q0 -45 89 -45v-34h-257v34q78 0 78 45v285q0 113 -83 113q-58 0 -122 -43t-94 -99v-256q0 -45 78 -45v-34h-256v34q88 0 88 45v351q0 46 -88 46v33h178v-102q101 112 232 112q157 0 157 -149z" />
<glyph unicode="o" horiz-adv-x="612" d="M315 529q118 0 190 -65t72 -207q0 -126 -71.5 -200t-201.5 -74q-115 0 -188 63t-73 199q0 133 69 208.5t203 75.5zM316 487q-90 0 -136 -57.5t-46 -152.5q0 -140 44 -196t126 -56q95 0 138 61t43 165q0 131 -44.5 183.5t-124.5 52.5z" />
<glyph unicode="p" horiz-adv-x="659" d="M153 509l8 -80q49 100 203 100q109 0 183.5 -68t74.5 -204q0 -72 -24 -126.5t-64 -86t-86.5 -46.5t-97.5 -15q-113 0 -161 53v-194q0 -45 111 -45v-33h-290v33q89 0 89 45v588q0 46 -89 46v33h143zM352 487q-90 0 -130 -64t-40 -167t40 -167t130 -64t133.5 65t43.5 166 t-43.5 166t-133.5 65z" />
<glyph unicode="q" horiz-adv-x="647" d="M553 509v-667q0 -45 89 -45v-33h-291v33q111 0 111 45v219q-21 -35 -66 -56.5t-102 -21.5q-251 0 -251 267q0 80 20 136.5t57.5 86.5t81.5 43t101 13q76 0 125.5 -37t58.5 -74l33 91h33zM299 487q-89 0 -129 -64.5t-40 -166.5t40 -166.5t129 -64.5q90 0 131 64.5 t41 166.5t-41 166.5t-131 64.5z" />
<glyph unicode="r" horiz-adv-x="547" d="M217 509v-97q31 54 75 80.5t92 26.5t86 -30t38 -90q0 -30 -16.5 -47.5t-46.5 -17.5q-29 0 -45 15.5t-16 38.5q0 25 18 39.5t51 14.5q-7 16 -28 25.5t-47 9.5q-99 0 -161 -146v-252q0 -45 100 -45v-34h-278v34q88 0 88 45v351q0 46 -88 46v33h178z" />
<glyph unicode="s" horiz-adv-x="518" d="M458 509v-191l-37 -7q-9 80 -59 123t-134 43q-49 0 -79.5 -19t-30.5 -57q0 -41 37 -62.5t90 -31t106.5 -22.5t90.5 -48t37 -95q0 -71 -49 -109.5t-142 -38.5q-103 0 -159 46q-21 16 -31 16q-12 0 -16 -20l-7 -36h-36v204l36 6q10 -79 69.5 -128t140.5 -49q118 0 118 84 q0 41 -37.5 62.5t-90.5 31t-106 22.5t-90.5 49t-37.5 97q0 66 48 103t137 37q37 0 78 -12t65 -31q21 -17 33 -17q11 0 14 15l5 35h37z" />
<glyph unicode="t" horiz-adv-x="390" d="M218 666v-157h136l-5 -58q-52 11 -131 11v-379q0 -45 50 -45q44 0 44 45v68h38v-58q0 -50 -20.5 -75t-81.5 -25q-120 0 -120 120v349h-89v34q64 5 94.5 33.5t30.5 107.5v22z" />
<glyph unicode="u" horiz-adv-x="696" d="M581 509v-430q0 -45 76 -45v-34h-168v102q-30 -45 -83.5 -78t-123.5 -33q-80 0 -117.5 34.5t-37.5 114.5v290q0 46 -88 46v33h178v-364q0 -62 18.5 -87t63.5 -25q54 0 107 40.5t83 100.5v256q0 46 -99 46v33h191z" />
<glyph unicode="v" horiz-adv-x="685" d="M646 509v-33q-64 0 -78 -34l-188 -442h-84l-185 441q-15 35 -72 35v33h263v-33h-64q-30 0 -30 -18q0 -9 3 -17l151 -374l156 366q4 7 4 14q0 29 -48 29h-41v33h213z" />
<glyph unicode="w" horiz-adv-x="994" d="M955 509v-33q-63 0 -74 -34l-159 -442h-80l-146 376l-153 -376h-81l-155 441q-12 35 -68 35v33h252v-33h-62q-28 0 -28 -18q0 -16 4 -23l123 -368l149 366q3 7 3 18q0 25 -35 25h-50v33h253v-33h-69q-24 0 -24 -17q0 -4 7 -23l145 -369l127 366q3 8 3 14q0 29 -45 29h-40 v33h203z" />
<glyph unicode="x" horiz-adv-x="715" d="M651 509v-33q-56 0 -90 -34l-158 -160l191 -214q30 -34 83 -34v-34h-292v34h82q22 0 22 13q0 7 -9 21l-139 161l-145 -152q-12 -12 -12 -26q0 -17 35 -17h75v-34h-255v34q56 0 89 33l187 191l-161 183q-32 35 -84 35v33h272v-33h-62q-23 0 -23 -14q0 -9 11 -21l111 -129 l114 121q13 13 13 25q0 18 -37 18h-54v33h236z" />
<glyph unicode="y" horiz-adv-x="673" d="M639 509v-33q-64 0 -78 -34l-234 -552q-27 -63 -58.5 -89t-90.5 -26q-66 0 -107 33t-41 83q0 26 14 45.5t45 19.5t46.5 -16.5t15.5 -38.5q0 -47 -52 -55q22 -36 87 -36q61 0 95 87l25 64l-202 480q-15 35 -73 35v33h265v-33h-65q-30 0 -30 -18q0 -9 3 -17l152 -374 l155 366q3 8 3 14q0 29 -47 29h-41v33h213z" />
<glyph unicode="z" horiz-adv-x="574" d="M534 509v-46l-383 -423h193q84 0 114.5 34.5t41.5 135.5l37 -6v-204h-498v47l390 422h-188q-71 0 -102 -32t-47 -126l-35 7v191h477z" />
<glyph unicode="{" horiz-adv-x="382" d="M345 830v-44q-16 -4 -31 -11.5t-35 -23t-32.5 -43.5t-12.5 -64v-205q0 -77 -54 -97q54 -24 54 -99v-264q0 -60 35.5 -96.5t75.5 -47.5v-39q-27 2 -46 5t-46.5 14t-45 28.5t-30.5 51t-13 78.5v275q0 70 -93 80v26q93 8 93 78v220q0 41 12.5 72.5t28.5 49t44 30t47 17 t49 9.5z" />
<glyph unicode="|" horiz-adv-x="245" d="M153 804v-920h-58v920h58z" />
<glyph unicode="}" horiz-adv-x="368" d="M218 652v-220q0 -70 93 -78v-26q-93 -10 -93 -80v-275q0 -45 -13 -78.5t-30.5 -51t-45 -28.5t-46.5 -14t-46 -5v39q40 11 75.5 47.5t35.5 96.5v264q0 75 54 99q-54 19 -54 97v205q0 36 -12.5 64t-32.5 43.5t-35 23t-31 11.5v44q30 -5 49 -9.5t47 -17t44 -30t28.5 -49 t12.5 -72.5z" />
<glyph unicode="~" horiz-adv-x="621" d="M526 442l58 -30q-17 -55 -65 -89.5t-111 -34.5q-41 0 -81 18.5t-73.5 37t-60.5 18.5q-50 0 -100 -73l-56 24q16 55 66.5 90t105.5 35q46 0 79.5 -11.5t50 -25t39 -25t47.5 -11.5q53 0 101 77z" />
<glyph unicode="&#xa1;" horiz-adv-x="326" d="M140 370h37q6 -125 14 -232.5t13 -162t5 -74.5q0 -43 -13.5 -58t-39.5 -15q-50 0 -50 70q0 23 4.5 76t13 163.5t16.5 232.5zM227 521q0 -28 -19.5 -47.5t-47.5 -19.5t-47.5 19.5t-19.5 47.5t19.5 47.5t47.5 19.5t47.5 -19.5t19.5 -47.5z" />
<glyph unicode="&#xa2;" horiz-adv-x="529" d="M289 743v-111q79 -3 133 -42.5t54 -84.5q0 -27 -15.5 -43t-42.5 -16q-26 0 -42 15.5t-16 39.5q0 20 14.5 33t34.5 15q-45 42 -120 43v-440q59 2 100.5 38.5t53.5 109.5l39 -6q-13 -74 -60 -125t-133 -57v-112h-33v112q-104 4 -166.5 68.5t-62.5 183.5q0 123 63 191.5 t166 75.5v112h33zM256 154v436q-142 -16 -142 -213q0 -104 40 -159t102 -64z" />
<glyph unicode="&#xa3;" horiz-adv-x="747" d="M516 339v-55h-214q-34 -96 -82 -147q49 -2 97.5 -26t96 -47.5t96.5 -23.5q24 0 64 17.5t67 38.5l24 -28q-75 -84 -217 -84q-47 0 -97.5 24.5t-98 49t-88.5 24.5q-26 0 -62.5 -29.5t-50.5 -64.5l-38 28q35 63 103 95q57 70 94 173h-55v55h74q15 47 30 126q40 217 240 217 q87 0 129.5 -49t42.5 -105q0 -30 -16.5 -50t-46.5 -20q-29 0 -46.5 17.5t-17.5 42.5q0 22 14.5 39t36.5 19q-15 59 -104 59q-116 0 -141 -162q-10 -67 -30 -134h196z" />
<glyph unicode="&#xa4;" horiz-adv-x="723" d="M620 648l39 -39l-62 -62q78 -83 78 -202q0 -117 -77 -200l62 -61l-39 -39l-64 64q-83 -59 -195 -59q-116 0 -201 61l-66 -66l-39 39l64 64q-74 80 -74 197q0 115 77 198l-66 66l39 39l68 -68q86 64 198 64q110 0 193 -61zM612 345q0 111 -74.5 179t-175.5 68 q-111 0 -182 -71t-71 -176q0 -112 75.5 -180t177.5 -68q118 0 184 75t66 173z" />
<glyph unicode="&#xa5;" horiz-adv-x="821" d="M750 666v-35q-62 0 -79 -25l-153 -224h158v-48h-191l-35 -53v-73h226v-49h-226v-83q0 -42 90 -42v-34h-272v34q90 0 90 42v83h-217v49h217v73l-35 53h-182v48h150l-149 223q-19 27 -74 27v34h295v-34h-88q-27 0 -27 -18q0 -8 3 -12l183 -270l178 266q3 6 3 12 q0 22 -41 22h-60v34h236z" />
<glyph unicode="&#xa6;" horiz-adv-x="227" d="M141 797v-368h-57v368h57zM141 264v-380h-57v380h57z" />
<glyph unicode="&#xa7;" horiz-adv-x="531" d="M457 750v-182l-35 -7q-8 77 -55.5 117.5t-128.5 40.5q-46 0 -75.5 -18t-29.5 -54q0 -42 35.5 -71.5t86 -49t101 -40.5t86 -59t35.5 -92q0 -42 -25 -82t-76 -68q101 -39 101 -126q0 -67 -47 -104t-135 -37q-96 0 -151 44q-19 15 -30 15t-15 -19l-7 -34h-34v194l34 6 q10 -75 66.5 -122t133.5 -47q113 0 113 80q0 39 -35.5 62.5t-86.5 38t-101.5 33.5t-86 61t-35.5 108q0 100 105 152q-50 19 -77.5 50.5t-27.5 85.5q0 63 46 98t130 35q82 0 136 -41q20 -16 32 -16q10 0 13 14l5 34h35zM214 467q-81 -39 -81 -127q0 -25 12 -46t27.5 -33.5 t45 -25t48 -18t54.5 -14.5q85 53 85 124q0 22 -13 41t-30 32.5t-46 27.5t-49.5 21.5t-52.5 17.5z" />
<glyph unicode="&#xa8;" horiz-adv-x="426" d="M387 656q0 -26 -18.5 -44.5t-44.5 -18.5t-44.5 18.5t-18.5 44.5t18.5 44.5t44.5 18.5t44.5 -18.5t18.5 -44.5zM167 656q0 -26 -18.5 -44.5t-44.5 -18.5t-44.5 18.5t-18.5 44.5t18.5 44.5t44.5 18.5t44.5 -18.5t18.5 -44.5z" />
<glyph unicode="&#xaa;" horiz-adv-x="458" d="M359 561v-164q0 -20 12 -20q10 0 10 20v50h37v-42q0 -37 -13 -54t-45 -17q-44 0 -58 52q-20 -25 -56.5 -41.5t-78.5 -16.5q-122 0 -122 98q0 31 16.5 53t47.5 34t58 18.5t66.5 12.5t54.5 10v14q0 33 -18 53.5t-52 20.5q-51 0 -87 -18q24 -10 24 -34q0 -19 -12 -31.5 t-33 -12.5t-32.5 13t-11.5 34q0 33 41.5 61t108.5 28q143 0 143 -121zM288 427v89q-99 -20 -136.5 -37t-37.5 -50q0 -50 71 -50q35 0 63 14t40 34z" />
<glyph unicode="&#xab;" horiz-adv-x="551" d="M493 478l30 -32l-126 -158l126 -162l-31 -30l-222 192zM249 478l31 -32l-127 -158l127 -161l-31 -31l-222 192z" />
<glyph unicode="&#xac;" horiz-adv-x="604" d="M539 385v-385h-58v325h-435v60h493z" />
<glyph unicode="&#xad;" horiz-adv-x="336" d="M308 319v-65h-281v65h281z" />
<glyph unicode="&#xaf;" horiz-adv-x="426" d="M380 677v-57h-331v57h331z" />
<glyph unicode="&#xb0;" horiz-adv-x="463" d="M338 571q0 43 -30 74t-78 31t-77.5 -31t-29.5 -74q0 -45 30 -75.5t77 -30.5t77.5 30.5t30.5 75.5zM426 571q0 -75 -56.5 -128t-139.5 -53t-138 53t-55 128q0 74 56 126.5t137 52.5q82 0 139 -52.5t57 -126.5z" />
<glyph unicode="&#xb1;" horiz-adv-x="567" d="M530 385v-60h-215v-199h-65v199h-213v60h213v198h65v-198h215zM530 60v-60h-493v60h493z" />
<glyph unicode="&#xb2;" horiz-adv-x="430" d="M324 491h31q2 -10 2 -22q0 -40 -13.5 -63.5t-52.5 -23.5q-29 0 -66 19.5t-73 19.5q-32 0 -56 -33h-28q11 51 37 86.5t54.5 53t55.5 33t44.5 37t17.5 53.5q0 29 -17.5 48t-54.5 19t-59 -22q19 -7 19 -34q0 -42 -40 -42t-40 44q0 34 30 64t89 30q62 0 102 -29.5t40 -89.5 q0 -38 -23 -66.5t-52 -42t-67 -31t-56 -32.5q20 7 44 7q26 0 56.5 -15.5t42.5 -15.5q24 0 33 48z" />
<glyph unicode="&#xb3;" horiz-adv-x="419" d="M171 569l5 33q41 2 68 18t27 46q0 22 -17 37t-51 15q-41 0 -60 -22q22 -7 22 -34q0 -19 -11 -30.5t-31 -11.5q-18 0 -29 12t-11 32q0 34 31 64t94 30q57 0 94.5 -24t37.5 -70q0 -54 -65 -77q79 -25 79 -94q0 -57 -42.5 -85.5t-114.5 -28.5q-58 0 -94.5 29t-36.5 60 q0 44 40 44q19 0 29.5 -11.5t10.5 -30.5q0 -23 -17 -30q23 -20 74 -20q81 0 81 69q0 73 -113 80z" />
<glyph unicode="&#xb4;" horiz-adv-x="312" d="M57 572l-20 29q26 14 65 45.5t70 51.5t58 20q45 0 45 -42q0 -24 -41.5 -42t-99.5 -34.5t-77 -27.5z" />
<glyph unicode="&#xb5;" horiz-adv-x="696" d="M38 -203q89 0 89 45v588q0 46 -88 46v33h178v-376q0 -54 19.5 -77t62.5 -23q54 0 107 40.5t83 100.5v256q0 46 -99 46v33h191v-430q0 -45 76 -45v-34h-168v102q-30 -45 -83.5 -78t-123.5 -33q-40 0 -65 7v-156q0 -45 111 -45v-33h-290v33z" />
<glyph unicode="&#xb6;" horiz-adv-x="613" d="M438 743v-826q0 -42 39 -42q41 0 58 19q-37 7 -37 38q0 16 11 27.5t33 11.5q21 0 31 -13.5t10 -31.5q0 -41 -28.5 -63.5t-81.5 -22.5q-45 0 -72 24.5t-27 66.5v468h-83v-457h-64v457q-90 0 -140.5 52.5t-50.5 123.5q0 68 46.5 118t129.5 50h226zM374 682h-83v-219h83v219 z" />
<glyph unicode="&#xb7;" horiz-adv-x="245" d="M191 373q0 -28 -19.5 -47.5t-47.5 -19.5t-47.5 19.5t-19.5 47.5t19.5 47.5t47.5 19.5t47.5 -19.5t19.5 -47.5z" />
<glyph unicode="&#xb8;" horiz-adv-x="241" d="M109 17v-57q37 -1 66 -24.5t29 -59.5q0 -46 -25 -69.5t-65 -23.5q-30 0 -49.5 16t-27.5 39l19 15q22 -36 54 -36q23 0 37 16t14 43q0 52 -80 56v85h28z" />
<glyph unicode="&#xb9;" horiz-adv-x="276" d="M144 761l37 -9q-5 -28 -5 -49v-267q0 -15 55 -15v-33h-184v33q65 0 65 15v231h-70l-2 32q76 2 104 62z" />
<glyph unicode="&#xba;" horiz-adv-x="442" d="M226 682q76 0 122.5 -42t46.5 -134q0 -82 -46.5 -130t-129.5 -48q-75 0 -122.5 41t-47.5 129q0 86 45 135t132 49zM226 642q-53 0 -79.5 -34t-26.5 -90q0 -84 25 -116.5t74 -32.5q105 0 105 133q0 78 -26 109t-72 31z" />
<glyph unicode="&#xbb;" horiz-adv-x="551" d="M279 287l-222 -191l-30 33l124 158l-124 161l30 30zM523 287l-224 -191l-31 32l127 159l-127 162l31 29z" />
<glyph unicode="&#xbc;" horiz-adv-x="936" d="M181 761l37 -9q-5 -28 -5 -49v-267q0 -15 55 -15v-33h-184v33q65 0 65 15v231h-70l-2 32q76 2 104 62zM772 745l-556 -745h-50l552 745h54zM806 370v-217h50l-11 -53h-39v-51q0 -16 48 -16v-33h-177v33q63 0 63 16v51h-193v33l203 237h56zM740 295l-121 -142h121v142z " />
<glyph unicode="&#xbd;" horiz-adv-x="936" d="M181 761l37 -9q-5 -28 -5 -49v-267q0 -15 55 -15v-33h-184v33q65 0 65 15v231h-70l-2 32q76 2 104 62zM772 745l-556 -745h-50l552 745h54zM828 103h31q2 -10 2 -22q0 -40 -13.5 -63.5t-52.5 -23.5q-29 0 -66 19.5t-73 19.5q-32 0 -56 -33h-28q11 51 37 86.5t54.5 53 t55.5 33t44.5 37t17.5 53.5q0 29 -17.5 48t-54.5 19t-59 -22q19 -7 19 -34q0 -42 -40 -42t-40 44q0 34 30 64t89 30q62 0 102 -29.5t40 -89.5q0 -38 -23 -66.5t-52 -42t-67 -31t-56 -32.5q20 7 44 7q26 0 56.5 -15.5t42.5 -15.5q24 0 33 48z" />
<glyph unicode="&#xbe;" horiz-adv-x="936" d="M772 745l-556 -745h-50l552 745h54zM806 370v-217h50l-11 -53h-39v-51q0 -16 48 -16v-33h-177v33q63 0 63 16v51h-193v33l203 237h56zM740 295l-121 -142h121v142zM164 569l5 33q41 2 68 18t27 46q0 22 -17 37t-51 15q-41 0 -60 -22q22 -7 22 -34q0 -19 -11 -30.5 t-31 -11.5q-18 0 -29 12t-11 32q0 34 31 64t94 30q57 0 94.5 -24t37.5 -70q0 -54 -65 -77q79 -25 79 -94q0 -57 -42.5 -85.5t-114.5 -28.5q-58 0 -94.5 29t-36.5 60q0 44 40 44q19 0 29.5 -11.5t10.5 -30.5q0 -23 -17 -30q23 -20 74 -20q81 0 81 69q0 73 -113 80z" />
<glyph unicode="&#xbf;" horiz-adv-x="533" d="M257 347h63q-7 -56 -27.5 -101.5t-44 -74.5t-46.5 -55.5t-38 -58t-15 -68.5q0 -51 28 -85.5t90 -34.5q73 0 106.5 18.5t48.5 50.5q-26 0 -45 16.5t-19 40.5q0 29 19 47.5t52 18.5q32 0 50 -19.5t18 -50.5q0 -29 -10.5 -56t-34.5 -54t-72 -43.5t-114 -16.5 q-109 0 -169 35.5t-60 124.5q0 47 20 85t49.5 65t60.5 54.5t56.5 68.5t33.5 93zM350 521q0 -28 -19.5 -47.5t-47.5 -19.5t-47.5 19.5t-19.5 47.5t19.5 47.5t47.5 19.5t47.5 -19.5t19.5 -47.5z" />
<glyph unicode="&#xc0;" d="M489 743l269 -678q12 -30 83 -30v-35h-330v35h99q28 0 28 20l-2 10l-53 135h-343l-49 -127q-2 -10 -2 -12q0 -26 44 -26h67v-35h-263v36q76 0 88 28l276 679h88zM410 639l-147 -379h296zM538 859l-20 -29q-31 14 -92 32t-94 33.5t-33 38.5q0 42 48 42q23 0 51 -18 t68 -49.5t72 -49.5z" />
<glyph unicode="&#xc1;" d="M489 743l269 -678q12 -30 83 -30v-35h-330v35h99q28 0 28 20l-2 10l-53 135h-343l-49 -127q-2 -10 -2 -12q0 -26 44 -26h67v-35h-263v36q76 0 88 28l276 679h88zM410 639l-147 -379h296zM360 830l-20 29q26 14 65 45.5t70 51.5t58 20q45 0 45 -42q0 -24 -41.5 -42 t-99.5 -34.5t-77 -27.5z" />
<glyph unicode="&#xc2;" d="M489 743l269 -678q12 -30 83 -30v-35h-330v35h99q28 0 28 20l-2 10l-53 135h-343l-49 -127q-2 -10 -2 -12q0 -26 44 -26h67v-35h-263v36q76 0 88 28l276 679h88zM410 639l-147 -379h296zM581 859l-41 -29l-101 58l-105 -58l-38 30l143 116z" />
<glyph unicode="&#xc3;" d="M489 743l269 -678q12 -30 83 -30v-35h-330v35h99q28 0 28 20l-2 10l-53 135h-343l-49 -127q-2 -10 -2 -12q0 -26 44 -26h67v-35h-263v36q76 0 88 28l276 679h88zM410 639l-147 -379h296zM579 960l44 -19q-11 -43 -43.5 -69t-73.5 -26q-32 0 -76 26t-66 26q-40 0 -68 -50 l-41 22q11 41 47 67.5t71 26.5q37 0 60.5 -13t42 -26t40.5 -13q21 0 34.5 8.5t28.5 39.5z" />
<glyph unicode="&#xc4;" d="M489 743l269 -678q12 -30 83 -30v-35h-330v35h99q28 0 28 20l-2 10l-53 135h-343l-49 -127q-2 -10 -2 -12q0 -26 44 -26h67v-35h-263v36q76 0 88 28l276 679h88zM410 639l-147 -379h296zM612 914q0 -26 -18.5 -44.5t-44.5 -18.5t-44.5 18.5t-18.5 44.5t18.5 44.5 t44.5 18.5t44.5 -18.5t18.5 -44.5zM392 914q0 -26 -18.5 -44.5t-44.5 -18.5t-44.5 18.5t-18.5 44.5t18.5 44.5t44.5 18.5t44.5 -18.5t18.5 -44.5z" />
<glyph unicode="&#xc5;" d="M489 743l269 -678q12 -30 83 -30v-35h-330v35h99q28 0 28 20l-2 10l-53 135h-343l-49 -127q-2 -10 -2 -12q0 -26 44 -26h67v-35h-263v36q76 0 88 28l276 679h88zM410 639l-147 -379h296zM437 940q-29 0 -47 -19.5t-18 -48.5q0 -33 17.5 -51t47.5 -18q28 0 46.5 18.5 t18.5 50.5q0 28 -19 48t-46 20zM541 872q0 -43 -30.5 -74t-73.5 -31q-42 0 -71.5 31t-29.5 74t29.5 73.5t71.5 30.5q43 0 73.5 -30.5t30.5 -73.5z" />
<glyph unicode="&#xc6;" horiz-adv-x="1170" d="M1100 743v-226l-40 -3q-18 174 -145 174h-240v-273h132q74 0 83 129h38l-15 -312h-36q-10 133 -77 133h-125v-310h204q179 0 203 237l42 -7l-24 -285h-617v35q89 0 89 46v119h-319l-82 -121q-10 -15 -10 -23q0 -21 39 -21h69v-35h-247v36q56 0 75 28l408 589q11 17 11 28 q0 27 -50 27h-97v35h731zM572 673l-279 -413h279v413z" />
<glyph unicode="&#xc7;" horiz-adv-x="795" d="M740 743v-246l-45 -4q-27 93 -95 150t-167 57q-96 0 -162.5 -47t-95 -120.5t-28.5 -167.5q0 -155 77.5 -237.5t210.5 -82.5q109 0 179 57.5t100 155.5l44 -23q-32 -103 -107.5 -173.5t-202.5 -76.5v-25q37 -1 66 -24.5t29 -59.5q0 -46 -25 -69.5t-65 -23.5 q-30 0 -49.5 16t-27.5 39l19 15q22 -36 54 -36q23 0 37 16t14 43q0 52 -80 56v52q-170 2 -276.5 99t-106.5 281q0 195 109 295t287 100q78 0 139 -27t91 -64l28 75h49z" />
<glyph unicode="&#xc8;" horiz-adv-x="744" d="M674 743v-226l-40 -3q-18 174 -145 174h-260v-273h152q74 0 83 129h38l-15 -312h-36q-10 133 -77 133h-145v-310h224q179 0 203 237l42 -7l-24 -285h-637v35q89 0 89 46v581q0 46 -89 46v35h637zM471 859l-20 -29q-31 14 -92 32t-94 33.5t-33 38.5q0 42 48 42 q23 0 51 -18t68 -49.5t72 -49.5z" />
<glyph unicode="&#xc9;" horiz-adv-x="744" d="M674 743v-226l-40 -3q-18 174 -145 174h-260v-273h152q74 0 83 129h38l-15 -312h-36q-10 133 -77 133h-145v-310h224q179 0 203 237l42 -7l-24 -285h-637v35q89 0 89 46v581q0 46 -89 46v35h637zM293 830l-20 29q26 14 65 45.5t70 51.5t58 20q45 0 45 -42 q0 -24 -41.5 -42t-99.5 -34.5t-77 -27.5z" />
<glyph unicode="&#xca;" horiz-adv-x="744" d="M674 743v-226l-40 -3q-18 174 -145 174h-260v-273h152q74 0 83 129h38l-15 -312h-36q-10 133 -77 133h-145v-310h224q179 0 203 237l42 -7l-24 -285h-637v35q89 0 89 46v581q0 46 -89 46v35h637zM514 859l-41 -29l-101 58l-105 -58l-38 30l143 116z" />
<glyph unicode="&#xcb;" horiz-adv-x="744" d="M674 743v-226l-40 -3q-18 174 -145 174h-260v-273h152q74 0 83 129h38l-15 -312h-36q-10 133 -77 133h-145v-310h224q179 0 203 237l42 -7l-24 -285h-637v35q89 0 89 46v581q0 46 -89 46v35h637zM545 914q0 -26 -18.5 -44.5t-44.5 -18.5t-44.5 18.5t-18.5 44.5t18.5 44.5 t44.5 18.5t44.5 -18.5t18.5 -44.5zM325 914q0 -26 -18.5 -44.5t-44.5 -18.5t-44.5 18.5t-18.5 44.5t18.5 44.5t44.5 18.5t44.5 -18.5t18.5 -44.5z" />
<glyph unicode="&#xcc;" horiz-adv-x="377" d="M329 743v-35q-89 0 -89 -46v-581q0 -46 89 -46v-35h-282v35q90 0 90 46v581q0 46 -90 46v35h282zM288 859l-20 -29q-31 14 -92 32t-94 33.5t-33 38.5q0 42 48 42q23 0 51 -18t68 -49.5t72 -49.5z" />
<glyph unicode="&#xcd;" horiz-adv-x="377" d="M329 743v-35q-89 0 -89 -46v-581q0 -46 89 -46v-35h-282v35q90 0 90 46v581q0 46 -90 46v35h282zM109 830l-20 29q26 14 65 45.5t70 51.5t58 20q45 0 45 -42q0 -24 -41.5 -42t-99.5 -34.5t-77 -27.5z" />
<glyph unicode="&#xce;" horiz-adv-x="377" d="M329 743v-35q-89 0 -89 -46v-581q0 -46 89 -46v-35h-282v35q90 0 90 46v581q0 46 -90 46v35h282zM331 859l-41 -29l-101 58l-105 -58l-38 30l143 116z" />
<glyph unicode="&#xcf;" horiz-adv-x="377" d="M329 743v-35q-89 0 -89 -46v-581q0 -46 89 -46v-35h-282v35q90 0 90 46v581q0 46 -90 46v35h282zM362 914q0 -26 -18.5 -44.5t-44.5 -18.5t-44.5 18.5t-18.5 44.5t18.5 44.5t44.5 18.5t44.5 -18.5t18.5 -44.5zM142 914q0 -26 -18.5 -44.5t-44.5 -18.5t-44.5 18.5 t-18.5 44.5t18.5 44.5t44.5 18.5t44.5 -18.5t18.5 -44.5z" />
<glyph unicode="&#xd0;" horiz-adv-x="827" d="M37 743h380q94 0 157 -14t113.5 -51.5t74 -108t23.5 -178.5q0 -212 -92 -301.5t-276 -89.5h-380v35q89 0 89 46v284h-89v50h89v247q0 46 -89 46v35zM433 688h-204v-273h89v-50h-89v-310h204q244 0 244 333q0 153 -56 226.5t-188 73.5z" />
<glyph unicode="&#xd1;" horiz-adv-x="870" d="M844 743v-35q-89 0 -89 -46v-662h-129l-440 640v-559q0 -46 89 -46v-35h-238v35q89 0 89 46v581q0 46 -89 46v35h211l447 -654v573q0 46 -89 46v35h238zM575 960l44 -19q-11 -43 -43.5 -69t-73.5 -26q-32 0 -76 26t-66 26q-40 0 -68 -50l-41 22q11 41 47 67.5t71 26.5 q37 0 60.5 -13t42 -26t40.5 -13q21 0 34.5 8.5t28.5 39.5z" />
<glyph unicode="&#xd2;" horiz-adv-x="832" d="M423 759q83 0 148.5 -20.5t116.5 -65t79 -120.5t28 -181q0 -180 -99 -284t-288 -104q-80 0 -145 20t-117 62.5t-80.5 116t-28.5 173.5q0 189 95.5 296t290.5 107zM428 700q-145 0 -214 -80.5t-69 -217.5q0 -103 17 -174t52.5 -110.5t82 -56t111.5 -16.5q153 0 217 84.5 t64 235.5q0 97 -18 163.5t-54 103.5t-81.5 52.5t-107.5 15.5zM515 859l-20 -29q-31 14 -92 32t-94 33.5t-33 38.5q0 42 48 42q23 0 51 -18t68 -49.5t72 -49.5z" />
<glyph unicode="&#xd3;" horiz-adv-x="832" d="M423 759q83 0 148.5 -20.5t116.5 -65t79 -120.5t28 -181q0 -180 -99 -284t-288 -104q-80 0 -145 20t-117 62.5t-80.5 116t-28.5 173.5q0 189 95.5 296t290.5 107zM428 700q-145 0 -214 -80.5t-69 -217.5q0 -103 17 -174t52.5 -110.5t82 -56t111.5 -16.5q153 0 217 84.5 t64 235.5q0 97 -18 163.5t-54 103.5t-81.5 52.5t-107.5 15.5zM337 830l-20 29q26 14 65 45.5t70 51.5t58 20q45 0 45 -42q0 -24 -41.5 -42t-99.5 -34.5t-77 -27.5z" />
<glyph unicode="&#xd4;" horiz-adv-x="832" d="M423 759q83 0 148.5 -20.5t116.5 -65t79 -120.5t28 -181q0 -180 -99 -284t-288 -104q-80 0 -145 20t-117 62.5t-80.5 116t-28.5 173.5q0 189 95.5 296t290.5 107zM428 700q-145 0 -214 -80.5t-69 -217.5q0 -103 17 -174t52.5 -110.5t82 -56t111.5 -16.5q153 0 217 84.5 t64 235.5q0 97 -18 163.5t-54 103.5t-81.5 52.5t-107.5 15.5zM558 859l-41 -29l-101 58l-105 -58l-38 30l143 116z" />
<glyph unicode="&#xd5;" horiz-adv-x="832" d="M423 759q83 0 148.5 -20.5t116.5 -65t79 -120.5t28 -181q0 -180 -99 -284t-288 -104q-80 0 -145 20t-117 62.5t-80.5 116t-28.5 173.5q0 189 95.5 296t290.5 107zM428 700q-145 0 -214 -80.5t-69 -217.5q0 -103 17 -174t52.5 -110.5t82 -56t111.5 -16.5q153 0 217 84.5 t64 235.5q0 97 -18 163.5t-54 103.5t-81.5 52.5t-107.5 15.5zM556 960l44 -19q-11 -43 -43.5 -69t-73.5 -26q-32 0 -76 26t-66 26q-40 0 -68 -50l-41 22q11 41 47 67.5t71 26.5q37 0 60.5 -13t42 -26t40.5 -13q21 0 34.5 8.5t28.5 39.5z" />
<glyph unicode="&#xd6;" horiz-adv-x="832" d="M423 759q83 0 148.5 -20.5t116.5 -65t79 -120.5t28 -181q0 -180 -99 -284t-288 -104q-80 0 -145 20t-117 62.5t-80.5 116t-28.5 173.5q0 189 95.5 296t290.5 107zM428 700q-145 0 -214 -80.5t-69 -217.5q0 -103 17 -174t52.5 -110.5t82 -56t111.5 -16.5q153 0 217 84.5 t64 235.5q0 97 -18 163.5t-54 103.5t-81.5 52.5t-107.5 15.5zM589 914q0 -26 -18.5 -44.5t-44.5 -18.5t-44.5 18.5t-18.5 44.5t18.5 44.5t44.5 18.5t44.5 -18.5t18.5 -44.5zM369 914q0 -26 -18.5 -44.5t-44.5 -18.5t-44.5 18.5t-18.5 44.5t18.5 44.5t44.5 18.5t44.5 -18.5 t18.5 -44.5z" />
<glyph unicode="&#xd7;" horiz-adv-x="567" d="M480 495l-151 -140l153 -141l-47 -42l-151 140l-152 -140l-46 42l151 141l-151 140l47 42l151 -140l151 140z" />
<glyph unicode="&#xd8;" horiz-adv-x="832" d="M667 769l-32 -58q160 -88 160 -339q0 -180 -99 -284t-288 -104q-90 0 -162 25l-38 -69l-45 24l36 65q-162 88 -162 327q0 189 95.5 296t290.5 107q96 0 166 -27l34 61zM236 96l322 579q-51 25 -130 25q-145 0 -214 -80.5t-69 -217.5q0 -229 91 -306zM600 648l-321 -580 q49 -23 129 -23q153 0 217 84.5t64 235.5q0 207 -89 283z" />
<glyph unicode="&#xd9;" horiz-adv-x="854" d="M820 743v-35q-90 0 -90 -46v-359q0 -319 -301 -319q-303 0 -303 319v359q0 46 -89 46v35h303v-35q-111 0 -111 -46v-359q0 -135 48.5 -196.5t171.5 -61.5q124 0 173 61.5t49 196.5v359q0 46 -112 46v35h261zM526 859l-20 -29q-31 14 -92 32t-94 33.5t-33 38.5q0 42 48 42 q23 0 51 -18t68 -49.5t72 -49.5z" />
<glyph unicode="&#xda;" horiz-adv-x="854" d="M820 743v-35q-90 0 -90 -46v-359q0 -319 -301 -319q-303 0 -303 319v359q0 46 -89 46v35h303v-35q-111 0 -111 -46v-359q0 -135 48.5 -196.5t171.5 -61.5q124 0 173 61.5t49 196.5v359q0 46 -112 46v35h261zM348 830l-20 29q26 14 65 45.5t70 51.5t58 20q45 0 45 -42 q0 -24 -41.5 -42t-99.5 -34.5t-77 -27.5z" />
<glyph unicode="&#xdb;" horiz-adv-x="854" d="M820 743v-35q-90 0 -90 -46v-359q0 -319 -301 -319q-303 0 -303 319v359q0 46 -89 46v35h303v-35q-111 0 -111 -46v-359q0 -135 48.5 -196.5t171.5 -61.5q124 0 173 61.5t49 196.5v359q0 46 -112 46v35h261zM569 859l-41 -29l-101 58l-105 -58l-38 30l143 116z" />
<glyph unicode="&#xdc;" horiz-adv-x="854" d="M820 743v-35q-90 0 -90 -46v-359q0 -319 -301 -319q-303 0 -303 319v359q0 46 -89 46v35h303v-35q-111 0 -111 -46v-359q0 -135 48.5 -196.5t171.5 -61.5q124 0 173 61.5t49 196.5v359q0 46 -112 46v35h261zM600 914q0 -26 -18.5 -44.5t-44.5 -18.5t-44.5 18.5 t-18.5 44.5t18.5 44.5t44.5 18.5t44.5 -18.5t18.5 -44.5zM380 914q0 -26 -18.5 -44.5t-44.5 -18.5t-44.5 18.5t-18.5 44.5t18.5 44.5t44.5 18.5t44.5 -18.5t18.5 -44.5z" />
<glyph unicode="&#xdd;" horiz-adv-x="821" d="M789 743v-36q-70 0 -88 -28l-246 -365v-233q0 -46 100 -46v-35h-303v35q100 0 100 46v233l-241 364q-21 30 -83 30v35h330v-35h-99q-30 0 -30 -20q0 -6 4 -13l204 -305l198 300q4 7 4 14q0 24 -46 24h-67v35h263zM331 830l-20 29q26 14 65 45.5t70 51.5t58 20 q45 0 45 -42q0 -24 -41.5 -42t-99.5 -34.5t-77 -27.5z" />
<glyph unicode="&#xde;" horiz-adv-x="702" d="M340 743v-35q-111 0 -111 -46v-69h144q67 0 117.5 -10t92.5 -33.5t64 -67t22 -106.5t-22 -106.5t-64 -67t-92.5 -33.5t-117.5 -10h-144v-78q0 -46 111 -46v-35h-303v35q89 0 89 46v581q0 46 -89 46v35h303zM386 533h-157v-314h157q85 0 128 41t43 116t-43 116t-128 41z " />
<glyph unicode="&#xdf;" horiz-adv-x="664" d="M205 598v-598h-179v34q88 0 88 45v499q0 102 59 152t148 50q92 0 140.5 -44.5t48.5 -113.5q0 -67 -23.5 -105.5t-70.5 -61.5q95 -8 145.5 -76.5t50.5 -168.5q0 -227 -198 -227q-64 0 -106.5 26t-57.5 66l31 21q16 -34 51 -52.5t73 -18.5q59 0 88 49.5t29 136.5 q0 110 -42.5 163.5t-150.5 53.5v34q52 3 76 39t24 109q0 67 -22 100.5t-85 33.5q-51 0 -84 -36t-33 -110z" />
<glyph unicode="&#xe0;" horiz-adv-x="644" d="M520 346v-263q0 -45 30 -45q14 0 21.5 13.5t7.5 31.5v68h36v-58q0 -53 -18.5 -76.5t-64.5 -23.5q-75 0 -86 101q-24 -46 -86.5 -78.5t-136.5 -32.5q-184 0 -184 146q0 39 18.5 68t45.5 46t71 30.5t80.5 19.5t89.5 15.5t84 16.5v31q0 59 -31 95t-93 36q-115 0 -162 -45 q21 -2 35.5 -16t14.5 -34q0 -26 -16 -42t-45 -16t-44.5 17t-15.5 45q0 50 63 91.5t167 41.5q102 0 160.5 -41t58.5 -142zM429 127v162q-172 -34 -237 -64.5t-65 -91.5q0 -91 126 -91q58 0 106 25.5t70 59.5zM412 601l-20 -29q-31 14 -92 32t-94 33.5t-33 38.5q0 42 48 42 q23 0 51 -18t68 -49.5t72 -49.5z" />
<glyph unicode="&#xe1;" horiz-adv-x="644" d="M520 346v-263q0 -45 30 -45q14 0 21.5 13.5t7.5 31.5v68h36v-58q0 -53 -18.5 -76.5t-64.5 -23.5q-75 0 -86 101q-24 -46 -86.5 -78.5t-136.5 -32.5q-184 0 -184 146q0 39 18.5 68t45.5 46t71 30.5t80.5 19.5t89.5 15.5t84 16.5v31q0 59 -31 95t-93 36q-115 0 -162 -45 q21 -2 35.5 -16t14.5 -34q0 -26 -16 -42t-45 -16t-44.5 17t-15.5 45q0 50 63 91.5t167 41.5q102 0 160.5 -41t58.5 -142zM429 127v162q-172 -34 -237 -64.5t-65 -91.5q0 -91 126 -91q58 0 106 25.5t70 59.5zM235 572l-20 29q26 14 65 45.5t70 51.5t58 20q45 0 45 -42 q0 -24 -41.5 -42t-99.5 -34.5t-77 -27.5z" />
<glyph unicode="&#xe2;" horiz-adv-x="644" d="M520 346v-263q0 -45 30 -45q14 0 21.5 13.5t7.5 31.5v68h36v-58q0 -53 -18.5 -76.5t-64.5 -23.5q-75 0 -86 101q-24 -46 -86.5 -78.5t-136.5 -32.5q-184 0 -184 146q0 39 18.5 68t45.5 46t71 30.5t80.5 19.5t89.5 15.5t84 16.5v31q0 59 -31 95t-93 36q-115 0 -162 -45 q21 -2 35.5 -16t14.5 -34q0 -26 -16 -42t-45 -16t-44.5 17t-15.5 45q0 50 63 91.5t167 41.5q102 0 160.5 -41t58.5 -142zM429 127v162q-172 -34 -237 -64.5t-65 -91.5q0 -91 126 -91q58 0 106 25.5t70 59.5zM455 601l-41 -29l-101 58l-105 -58l-38 30l143 116z" />
<glyph unicode="&#xe3;" horiz-adv-x="644" d="M520 346v-263q0 -45 30 -45q14 0 21.5 13.5t7.5 31.5v68h36v-58q0 -53 -18.5 -76.5t-64.5 -23.5q-75 0 -86 101q-24 -46 -86.5 -78.5t-136.5 -32.5q-184 0 -184 146q0 39 18.5 68t45.5 46t71 30.5t80.5 19.5t89.5 15.5t84 16.5v31q0 59 -31 95t-93 36q-115 0 -162 -45 q21 -2 35.5 -16t14.5 -34q0 -26 -16 -42t-45 -16t-44.5 17t-15.5 45q0 50 63 91.5t167 41.5q102 0 160.5 -41t58.5 -142zM429 127v162q-172 -34 -237 -64.5t-65 -91.5q0 -91 126 -91q58 0 106 25.5t70 59.5zM450 702l44 -19q-11 -43 -43.5 -69t-73.5 -26q-32 0 -76 26 t-66 26q-40 0 -68 -50l-41 22q11 41 47 67.5t71 26.5q37 0 60.5 -13t42 -26t40.5 -13q21 0 34.5 8.5t28.5 39.5z" />
<glyph unicode="&#xe4;" horiz-adv-x="644" d="M520 346v-263q0 -45 30 -45q14 0 21.5 13.5t7.5 31.5v68h36v-58q0 -53 -18.5 -76.5t-64.5 -23.5q-75 0 -86 101q-24 -46 -86.5 -78.5t-136.5 -32.5q-184 0 -184 146q0 39 18.5 68t45.5 46t71 30.5t80.5 19.5t89.5 15.5t84 16.5v31q0 59 -31 95t-93 36q-115 0 -162 -45 q21 -2 35.5 -16t14.5 -34q0 -26 -16 -42t-45 -16t-44.5 17t-15.5 45q0 50 63 91.5t167 41.5q102 0 160.5 -41t58.5 -142zM429 127v162q-172 -34 -237 -64.5t-65 -91.5q0 -91 126 -91q58 0 106 25.5t70 59.5zM484 656q0 -26 -18.5 -44.5t-44.5 -18.5t-44.5 18.5t-18.5 44.5 t18.5 44.5t44.5 18.5t44.5 -18.5t18.5 -44.5zM264 656q0 -26 -18.5 -44.5t-44.5 -18.5t-44.5 18.5t-18.5 44.5t18.5 44.5t44.5 18.5t44.5 -18.5t18.5 -44.5z" />
<glyph unicode="&#xe5;" horiz-adv-x="644" d="M520 346v-263q0 -45 30 -45q14 0 21.5 13.5t7.5 31.5v68h36v-58q0 -53 -18.5 -76.5t-64.5 -23.5q-75 0 -86 101q-24 -46 -86.5 -78.5t-136.5 -32.5q-184 0 -184 146q0 39 18.5 68t45.5 46t71 30.5t80.5 19.5t89.5 15.5t84 16.5v31q0 59 -31 95t-93 36q-115 0 -162 -45 q21 -2 35.5 -16t14.5 -34q0 -26 -16 -42t-45 -16t-44.5 17t-15.5 45q0 50 63 91.5t167 41.5q102 0 160.5 -41t58.5 -142zM429 127v162q-172 -34 -237 -64.5t-65 -91.5q0 -91 126 -91q58 0 106 25.5t70 59.5zM312 716q-29 0 -47 -19.5t-18 -48.5q0 -33 17.5 -51t47.5 -18 q28 0 46.5 18.5t18.5 50.5q0 28 -19 48t-46 20zM416 648q0 -43 -30.5 -74t-73.5 -31q-42 0 -71.5 31t-29.5 74t29.5 73.5t71.5 30.5q43 0 73.5 -30.5t30.5 -73.5z" />
<glyph unicode="&#xe6;" horiz-adv-x="970" d="M931 271h-415q0 -116 43.5 -181t126.5 -65q148 0 185 136l40 -15q-52 -163 -225 -163q-171 0 -228 128q-86 -128 -235 -128q-184 0 -184 146q0 39 18.5 68t45.5 46t71 30.5t80.5 19.5t89.5 15.5t84 16.5v31q0 59 -31 95t-93 36q-115 0 -162 -45q21 -2 35.5 -16t14.5 -34 q0 -26 -16 -42t-45 -16t-44.5 17t-15.5 45q0 50 63 91.5t167 41.5q147 0 188 -88q69 88 202 88q115 0 177.5 -68t62.5 -190zM429 127v162q-172 -34 -237 -64.5t-65 -91.5q0 -91 126 -91q58 0 106 25.5t70 59.5zM517 309h320q0 80 -40.5 129t-109.5 49t-115.5 -43.5 t-54.5 -134.5z" />
<glyph unicode="&#xe7;" horiz-adv-x="560" d="M480 181l41 -7q-14 -79 -65.5 -133.5t-146.5 -57.5v-25q38 -1 68.5 -25.5t30.5 -62.5q0 -48 -26 -73t-68 -25q-60 0 -81 58l20 16q23 -38 57 -38q24 0 38.5 16.5t14.5 45.5q0 53 -84 59v55q-108 6 -172 73.5t-64 190.5q0 136 73.5 208.5t192.5 72.5q86 0 145.5 -42 t59.5 -91q0 -28 -16 -45t-44 -17t-44.5 16.5t-16.5 41.5q0 20 15 34t36 16q-47 45 -130 45q-180 0 -180 -226q0 -119 50 -177.5t125 -58.5q66 0 112 38t59 118z" />
<glyph unicode="&#xe8;" horiz-adv-x="584" d="M549 271h-416q0 -116 43.5 -181t126.5 -65q149 0 186 136l40 -15q-52 -163 -226 -163q-50 0 -93 12.5t-82.5 41.5t-62 84.5t-22.5 133.5q0 123 71 198.5t195 75.5q115 0 177.5 -68t62.5 -190zM134 309h321q0 80 -40.5 129t-110.5 49q-69 0 -115 -43.5t-55 -134.5z M382 601l-20 -29q-31 14 -92 32t-94 33.5t-33 38.5q0 42 48 42q23 0 51 -18t68 -49.5t72 -49.5z" />
<glyph unicode="&#xe9;" horiz-adv-x="584" d="M549 271h-416q0 -116 43.5 -181t126.5 -65q149 0 186 136l40 -15q-52 -163 -226 -163q-50 0 -93 12.5t-82.5 41.5t-62 84.5t-22.5 133.5q0 123 71 198.5t195 75.5q115 0 177.5 -68t62.5 -190zM134 309h321q0 80 -40.5 129t-110.5 49q-69 0 -115 -43.5t-55 -134.5z M206 572l-20 29q26 14 65 45.5t70 51.5t58 20q45 0 45 -42q0 -24 -41.5 -42t-99.5 -34.5t-77 -27.5z" />
<glyph unicode="&#xea;" horiz-adv-x="584" d="M549 271h-416q0 -116 43.5 -181t126.5 -65q149 0 186 136l40 -15q-52 -163 -226 -163q-50 0 -93 12.5t-82.5 41.5t-62 84.5t-22.5 133.5q0 123 71 198.5t195 75.5q115 0 177.5 -68t62.5 -190zM134 309h321q0 80 -40.5 129t-110.5 49q-69 0 -115 -43.5t-55 -134.5z M425 601l-41 -29l-101 58l-105 -58l-38 30l143 116z" />
<glyph unicode="&#xeb;" horiz-adv-x="584" d="M549 271h-416q0 -116 43.5 -181t126.5 -65q149 0 186 136l40 -15q-52 -163 -226 -163q-50 0 -93 12.5t-82.5 41.5t-62 84.5t-22.5 133.5q0 123 71 198.5t195 75.5q115 0 177.5 -68t62.5 -190zM134 309h321q0 80 -40.5 129t-110.5 49q-69 0 -115 -43.5t-55 -134.5z M454 656q0 -26 -18.5 -44.5t-44.5 -18.5t-44.5 18.5t-18.5 44.5t18.5 44.5t44.5 18.5t44.5 -18.5t18.5 -44.5zM234 656q0 -26 -18.5 -44.5t-44.5 -18.5t-44.5 18.5t-18.5 44.5t18.5 44.5t44.5 18.5t44.5 -18.5t18.5 -44.5z" />
<glyph unicode="&#xec;" horiz-adv-x="344" d="M217 509v-430q0 -45 89 -45v-34h-267v34q88 0 88 45v351q0 46 -88 46v33h178zM247 601l-20 -29q-31 14 -92 32t-94 33.5t-33 38.5q0 42 48 42q23 0 51 -18t68 -49.5t72 -49.5z" />
<glyph unicode="&#xed;" horiz-adv-x="344" d="M217 509v-430q0 -45 89 -45v-34h-267v34q88 0 88 45v351q0 46 -88 46v33h178zM83 572l-20 29q26 14 65 45.5t70 51.5t58 20q45 0 45 -42q0 -24 -41.5 -42t-99.5 -34.5t-77 -27.5z" />
<glyph unicode="&#xee;" horiz-adv-x="344" d="M217 509v-430q0 -45 89 -45v-34h-267v34q88 0 88 45v351q0 46 -88 46v33h178zM307 601l-41 -29l-101 58l-105 -58l-38 30l143 116z" />
<glyph unicode="&#xef;" horiz-adv-x="344" d="M217 509v-430q0 -45 89 -45v-34h-267v34q88 0 88 45v351q0 46 -88 46v33h178zM337 656q0 -26 -18.5 -44.5t-44.5 -18.5t-44.5 18.5t-18.5 44.5t18.5 44.5t44.5 18.5t44.5 -18.5t18.5 -44.5zM117 656q0 -26 -18.5 -44.5t-44.5 -18.5t-44.5 18.5t-18.5 44.5t18.5 44.5 t44.5 18.5t44.5 -18.5t18.5 -44.5z" />
<glyph unicode="&#xf0;" horiz-adv-x="612" d="M453 769l27 -31l-87 -80q87 -92 135.5 -194.5t48.5 -202.5q0 -134 -70.5 -206t-202.5 -72q-110 0 -185.5 62.5t-75.5 173.5q0 131 68.5 201.5t203.5 70.5q67 0 118 -20q-23 74 -85 145l-93 -85l-27 32l92 85q-41 45 -93 80l22 41q61 -33 113 -83zM316 449 q-89 0 -135.5 -55t-46.5 -143q0 -226 170 -226q94 0 137.5 54.5t43.5 145.5q0 224 -169 224z" />
<glyph unicode="&#xf1;" horiz-adv-x="733" d="M606 370v-291q0 -45 89 -45v-34h-257v34q78 0 78 45v285q0 113 -83 113q-58 0 -122 -43t-94 -99v-256q0 -45 78 -45v-34h-256v34q88 0 88 45v351q0 46 -88 46v33h178v-102q101 112 232 112q157 0 157 -149zM495 702l44 -19q-11 -43 -43.5 -69t-73.5 -26q-32 0 -76 26 t-66 26q-40 0 -68 -50l-41 22q11 41 47 67.5t71 26.5q37 0 60.5 -13t42 -26t40.5 -13q21 0 34.5 8.5t28.5 39.5z" />
<glyph unicode="&#xf2;" horiz-adv-x="612" d="M315 529q118 0 190 -65t72 -207q0 -126 -71.5 -200t-201.5 -74q-115 0 -188 63t-73 199q0 133 69 208.5t203 75.5zM316 487q-90 0 -136 -57.5t-46 -152.5q0 -140 44 -196t126 -56q95 0 138 61t43 165q0 131 -44.5 183.5t-124.5 52.5zM397 601l-20 -29q-31 14 -92 32 t-94 33.5t-33 38.5q0 42 48 42q23 0 51 -18t68 -49.5t72 -49.5z" />
<glyph unicode="&#xf3;" horiz-adv-x="612" d="M315 529q118 0 190 -65t72 -207q0 -126 -71.5 -200t-201.5 -74q-115 0 -188 63t-73 199q0 133 69 208.5t203 75.5zM316 487q-90 0 -136 -57.5t-46 -152.5q0 -140 44 -196t126 -56q95 0 138 61t43 165q0 131 -44.5 183.5t-124.5 52.5zM220 572l-20 29q26 14 65 45.5 t70 51.5t58 20q45 0 45 -42q0 -24 -41.5 -42t-99.5 -34.5t-77 -27.5z" />
<glyph unicode="&#xf4;" horiz-adv-x="612" d="M315 529q118 0 190 -65t72 -207q0 -126 -71.5 -200t-201.5 -74q-115 0 -188 63t-73 199q0 133 69 208.5t203 75.5zM316 487q-90 0 -136 -57.5t-46 -152.5q0 -140 44 -196t126 -56q95 0 138 61t43 165q0 131 -44.5 183.5t-124.5 52.5zM440 601l-41 -29l-101 58l-105 -58 l-38 30l143 116z" />
<glyph unicode="&#xf5;" horiz-adv-x="612" d="M315 529q118 0 190 -65t72 -207q0 -126 -71.5 -200t-201.5 -74q-115 0 -188 63t-73 199q0 133 69 208.5t203 75.5zM316 487q-90 0 -136 -57.5t-46 -152.5q0 -140 44 -196t126 -56q95 0 138 61t43 165q0 131 -44.5 183.5t-124.5 52.5zM434 702l44 -19q-11 -43 -43.5 -69 t-73.5 -26q-32 0 -76 26t-66 26q-40 0 -68 -50l-41 22q11 41 47 67.5t71 26.5q37 0 60.5 -13t42 -26t40.5 -13q21 0 34.5 8.5t28.5 39.5z" />
<glyph unicode="&#xf6;" horiz-adv-x="612" d="M315 529q118 0 190 -65t72 -207q0 -126 -71.5 -200t-201.5 -74q-115 0 -188 63t-73 199q0 133 69 208.5t203 75.5zM316 487q-90 0 -136 -57.5t-46 -152.5q0 -140 44 -196t126 -56q95 0 138 61t43 165q0 131 -44.5 183.5t-124.5 52.5zM468 656q0 -26 -18.5 -44.5 t-44.5 -18.5t-44.5 18.5t-18.5 44.5t18.5 44.5t44.5 18.5t44.5 -18.5t18.5 -44.5zM248 656q0 -26 -18.5 -44.5t-44.5 -18.5t-44.5 18.5t-18.5 44.5t18.5 44.5t44.5 18.5t44.5 -18.5t18.5 -44.5z" />
<glyph unicode="&#xf7;" horiz-adv-x="567" d="M530 385v-60h-493v60h493zM352 542q0 -28 -19.5 -47.5t-47.5 -19.5t-47.5 19.5t-19.5 47.5t19.5 47.5t47.5 19.5t47.5 -19.5t19.5 -47.5zM352 164q0 -28 -19.5 -47.5t-47.5 -19.5t-47.5 19.5t-19.5 47.5t19.5 47.5t47.5 19.5t47.5 -19.5t19.5 -47.5z" />
<glyph unicode="&#xf8;" horiz-adv-x="612" d="M510 542l-31 -57q98 -67 98 -228q0 -126 -71.5 -200t-201.5 -74q-54 0 -96 13l-33 -59l-47 25l29 54q-114 64 -114 229q0 133 69 208.5t203 75.5q67 0 117 -20l32 58zM187 69l219 395q-34 23 -90 23q-90 0 -136 -57.5t-46 -152.5q0 -150 53 -208zM446 426l-215 -388 q29 -13 73 -13q95 0 138 61t43 165q0 117 -39 175z" />
<glyph unicode="&#xf9;" horiz-adv-x="696" d="M581 509v-430q0 -45 76 -45v-34h-168v102q-30 -45 -83.5 -78t-123.5 -33q-80 0 -117.5 34.5t-37.5 114.5v290q0 46 -88 46v33h178v-364q0 -62 18.5 -87t63.5 -25q54 0 107 40.5t83 100.5v256q0 46 -99 46v33h191zM439 601l-20 -29q-31 14 -92 32t-94 33.5t-33 38.5 q0 42 48 42q23 0 51 -18t68 -49.5t72 -49.5z" />
<glyph unicode="&#xfa;" horiz-adv-x="696" d="M581 509v-430q0 -45 76 -45v-34h-168v102q-30 -45 -83.5 -78t-123.5 -33q-80 0 -117.5 34.5t-37.5 114.5v290q0 46 -88 46v33h178v-364q0 -62 18.5 -87t63.5 -25q54 0 107 40.5t83 100.5v256q0 46 -99 46v33h191zM262 572l-20 29q26 14 65 45.5t70 51.5t58 20 q45 0 45 -42q0 -24 -41.5 -42t-99.5 -34.5t-77 -27.5z" />
<glyph unicode="&#xfb;" horiz-adv-x="696" d="M581 509v-430q0 -45 76 -45v-34h-168v102q-30 -45 -83.5 -78t-123.5 -33q-80 0 -117.5 34.5t-37.5 114.5v290q0 46 -88 46v33h178v-364q0 -62 18.5 -87t63.5 -25q54 0 107 40.5t83 100.5v256q0 46 -99 46v33h191zM482 601l-41 -29l-101 58l-105 -58l-38 30l143 116z" />
<glyph unicode="&#xfc;" horiz-adv-x="696" d="M581 509v-430q0 -45 76 -45v-34h-168v102q-30 -45 -83.5 -78t-123.5 -33q-80 0 -117.5 34.5t-37.5 114.5v290q0 46 -88 46v33h178v-364q0 -62 18.5 -87t63.5 -25q54 0 107 40.5t83 100.5v256q0 46 -99 46v33h191zM510 656q0 -26 -18.5 -44.5t-44.5 -18.5t-44.5 18.5 t-18.5 44.5t18.5 44.5t44.5 18.5t44.5 -18.5t18.5 -44.5zM290 656q0 -26 -18.5 -44.5t-44.5 -18.5t-44.5 18.5t-18.5 44.5t18.5 44.5t44.5 18.5t44.5 -18.5t18.5 -44.5z" />
<glyph unicode="&#xfd;" horiz-adv-x="673" d="M639 509v-33q-64 0 -78 -34l-234 -552q-27 -63 -58.5 -89t-90.5 -26q-66 0 -107 33t-41 83q0 26 14 45.5t45 19.5t46.5 -16.5t15.5 -38.5q0 -47 -52 -55q22 -36 87 -36q61 0 95 87l25 64l-202 480q-15 35 -73 35v33h265v-33h-65q-30 0 -30 -18q0 -9 3 -17l152 -374 l155 366q3 8 3 14q0 29 -47 29h-41v33h213zM250 572l-20 29q26 14 65 45.5t70 51.5t58 20q45 0 45 -42q0 -24 -41.5 -42t-99.5 -34.5t-77 -27.5z" />
<glyph unicode="&#xfe;" horiz-adv-x="638" d="M182 770v-319q20 35 65 56.5t103 21.5q54 0 96.5 -12t80 -41t58 -85t20.5 -136q0 -133 -78.5 -202.5t-185.5 -69.5q-112 0 -160 53v-194q0 -45 111 -45v-33h-290v33q88 0 88 45v850q0 45 -88 45v33h180zM343 487q-85 0 -127.5 -59t-42.5 -151q0 -252 170 -252 q48 0 83 19.5t54 53.5t28 73t9 85q0 101 -42.5 166t-131.5 65z" />
<glyph unicode="&#xff;" horiz-adv-x="673" d="M639 509v-33q-64 0 -78 -34l-234 -552q-27 -63 -58.5 -89t-90.5 -26q-66 0 -107 33t-41 83q0 26 14 45.5t45 19.5t46.5 -16.5t15.5 -38.5q0 -47 -52 -55q22 -36 87 -36q61 0 95 87l25 64l-202 480q-15 35 -73 35v33h265v-33h-65q-30 0 -30 -18q0 -9 3 -17l152 -374 l155 366q3 8 3 14q0 29 -47 29h-41v33h213zM498 656q0 -26 -18.5 -44.5t-44.5 -18.5t-44.5 18.5t-18.5 44.5t18.5 44.5t44.5 18.5t44.5 -18.5t18.5 -44.5zM278 656q0 -26 -18.5 -44.5t-44.5 -18.5t-44.5 18.5t-18.5 44.5t18.5 44.5t44.5 18.5t44.5 -18.5t18.5 -44.5z" />
<glyph unicode="&#x152;" horiz-adv-x="1228" d="M1158 743v-226l-40 -3q-18 174 -145 174h-250v-273h142q74 0 83 129h38l-15 -312h-36q-10 133 -77 133h-135v-310h214q179 0 203 237l42 -7l-24 -285h-532q-19 0 -90.5 -8t-127.5 -8q-80 0 -145 20t-117 62.5t-80.5 116t-28.5 173.5q0 189 95.5 296t290.5 107 q47 0 114.5 -8t88.5 -8h532zM428 700q-145 0 -214 -80.5t-69 -217.5q0 -103 17 -174t52.5 -110.5t82 -56t111.5 -16.5q56 0 89.5 3.5t62 16.5t42 32t23 58.5t12 86t2.5 123.5q0 81 -2.5 130t-11.5 90t-21 61t-38.5 33.5t-56.5 17t-81 3.5z" />
<glyph unicode="&#x153;" horiz-adv-x="1027" d="M988 271h-416q0 -116 43.5 -181t126.5 -65q149 0 186 136l40 -15q-52 -163 -226 -163q-154 0 -216 105q-68 -105 -222 -105q-115 0 -188 63t-73 199q0 133 69 208.5t203 75.5q156 0 217 -106q69 106 216 106q115 0 177.5 -68t62.5 -190zM316 487q-90 0 -136 -57.5 t-46 -152.5q0 -140 44 -196t126 -56q95 0 138 61t43 165q0 131 -44.5 183.5t-124.5 52.5zM573 309h321q0 80 -40.5 129t-110.5 49q-69 0 -115 -43.5t-55 -134.5z" />
<glyph unicode="&#x178;" horiz-adv-x="821" d="M789 743v-36q-70 0 -88 -28l-246 -365v-233q0 -46 100 -46v-35h-303v35q100 0 100 46v233l-241 364q-21 30 -83 30v35h330v-35h-99q-30 0 -30 -20q0 -6 4 -13l204 -305l198 300q4 7 4 14q0 24 -46 24h-67v35h263zM583 914q0 -26 -18.5 -44.5t-44.5 -18.5t-44.5 18.5 t-18.5 44.5t18.5 44.5t44.5 18.5t44.5 -18.5t18.5 -44.5zM363 914q0 -26 -18.5 -44.5t-44.5 -18.5t-44.5 18.5t-18.5 44.5t18.5 44.5t44.5 18.5t44.5 -18.5t18.5 -44.5z" />
<glyph unicode="&#x2c6;" horiz-adv-x="358" d="M322 601l-41 -29l-101 58l-105 -58l-38 30l143 116z" />
<glyph unicode="&#x2dc;" horiz-adv-x="441" d="M361 702l44 -19q-11 -43 -43.5 -69t-73.5 -26q-32 0 -76 26t-66 26q-40 0 -68 -50l-41 22q11 41 47 67.5t71 26.5q37 0 60.5 -13t42 -26t40.5 -13q21 0 34.5 8.5t28.5 39.5z" />
<glyph unicode="&#x2000;" horiz-adv-x="488" />
<glyph unicode="&#x2001;" horiz-adv-x="977" />
<glyph unicode="&#x2002;" horiz-adv-x="488" />
<glyph unicode="&#x2003;" horiz-adv-x="977" />
<glyph unicode="&#x2004;" horiz-adv-x="325" />
<glyph unicode="&#x2005;" horiz-adv-x="244" />
<glyph unicode="&#x2006;" horiz-adv-x="162" />
<glyph unicode="&#x2007;" horiz-adv-x="162" />
<glyph unicode="&#x2008;" horiz-adv-x="122" />
<glyph unicode="&#x2009;" horiz-adv-x="195" />
<glyph unicode="&#x200a;" horiz-adv-x="54" />
<glyph unicode="&#x2010;" horiz-adv-x="336" d="M308 319v-65h-281v65h281z" />
<glyph unicode="&#x2011;" horiz-adv-x="336" d="M308 319v-65h-281v65h281z" />
<glyph unicode="&#x2012;" horiz-adv-x="336" d="M308 319v-65h-281v65h281z" />
<glyph unicode="&#x2013;" horiz-adv-x="595" d="M567 319v-65h-540v65h540z" />
<glyph unicode="&#x2014;" horiz-adv-x="1006" d="M978 319v-65h-951v65h951z" />
<glyph unicode="&#x2018;" horiz-adv-x="237" d="M180 784l21 -32q-41 -24 -61.5 -46t-23.5 -32.5t-3 -26.5q0 -15 14 -15q64 0 64 -52q0 -66 -68 -66q-86 0 -86 96q0 104 143 174z" />
<glyph unicode="&#x2019;" horiz-adv-x="237" d="M57 504l-20 32q40 24 60.5 46t23.5 32.5t3 26.5q0 15 -14 15q-64 0 -64 52q0 66 68 66q87 0 87 -96q0 -104 -144 -174z" />
<glyph unicode="&#x201a;" horiz-adv-x="237" d="M57 -154l-20 32q40 24 60.5 46t23.5 32.5t3 26.5q0 15 -14 15q-64 0 -64 52q0 66 68 66q87 0 87 -96q0 -104 -144 -174z" />
<glyph unicode="&#x201c;" horiz-adv-x="453" d="M396 784l21 -32q-41 -24 -61.5 -46t-23.5 -32.5t-3 -26.5q0 -15 14 -15q64 0 64 -52q0 -66 -68 -66q-86 0 -86 96q0 104 143 174zM180 784l21 -32q-41 -24 -61.5 -46t-23.5 -32.5t-3 -26.5q0 -15 14 -15q64 0 64 -52q0 -66 -68 -66q-86 0 -86 96q0 104 143 174z" />
<glyph unicode="&#x201d;" horiz-adv-x="453" d="M57 504l-20 32q40 24 60.5 46t23.5 32.5t3 26.5q0 15 -14 15q-64 0 -64 52q0 66 68 66q87 0 87 -96q0 -104 -144 -174zM273 504l-20 32q40 24 60.5 46t23.5 32.5t3 26.5q0 15 -14 15q-64 0 -64 52q0 66 68 66q87 0 87 -96q0 -104 -144 -174z" />
<glyph unicode="&#x201e;" horiz-adv-x="540" d="M100 -154l-20 32q40 24 60.5 46t23.5 32.5t3 26.5q0 15 -14 15q-63 0 -63 52q0 66 68 66q86 0 86 -96q0 -104 -144 -174zM316 -154l-20 32q40 24 60.5 46t23.5 32.5t3 26.5q0 15 -14 15q-63 0 -63 52q0 66 68 66q86 0 86 -96q0 -104 -144 -174z" />
<glyph unicode="&#x2022;" horiz-adv-x="411" d="M375 363q0 -69 -46.5 -112t-120.5 -43q-78 0 -124.5 42.5t-46.5 112.5q0 69 47 112t124 43q74 0 120.5 -43.5t46.5 -111.5z" />
<glyph unicode="&#x2026;" horiz-adv-x="1052" d="M218 59q0 -28 -19.5 -47.5t-47.5 -19.5t-47.5 19.5t-19.5 47.5t19.5 47.5t47.5 19.5t47.5 -19.5t19.5 -47.5zM592 59q0 -28 -19.5 -47.5t-47.5 -19.5t-47.5 19.5t-19.5 47.5t19.5 47.5t47.5 19.5t47.5 -19.5t19.5 -47.5zM966 59q0 -28 -19.5 -47.5t-47.5 -19.5 t-47.5 19.5t-19.5 47.5t19.5 47.5t47.5 19.5t47.5 -19.5t19.5 -47.5z" />
<glyph unicode="&#x202f;" horiz-adv-x="195" />
<glyph unicode="&#x2039;" horiz-adv-x="306" d="M249 478l30 -32l-127 -158l127 -161l-30 -31l-222 192z" />
<glyph unicode="&#x203a;" horiz-adv-x="305" d="M277 287l-221 -191l-29 33l123 158l-123 161l29 30z" />
<glyph unicode="&#x205f;" horiz-adv-x="244" />
<glyph unicode="&#x20ac;" horiz-adv-x="733" d="M502 409l-24 -46h-283q-1 -12 -1 -36q0 -22 1 -33h248l-24 -47h-220q7 -45 21.5 -81.5t39.5 -68t64 -49t89 -17.5q151 0 202 121l42 -18q-18 -36 -35.5 -60t-45.5 -46t-68.5 -33t-94.5 -11q-127 0 -210 71t-104 192h-59l12 47h42q-1 10 -1 32q0 25 1 37h-54l12 46h48 q23 123 108.5 198t221.5 75q103 0 163.5 -49.5t60.5 -106.5q0 -31 -16.5 -49.5t-46.5 -18.5q-29 0 -46.5 18t-17.5 46q0 18 12.5 34t29.5 17q-13 28 -53 45t-98 17q-87 0 -142.5 -65.5t-73.5 -160.5h300z" />
<glyph unicode="&#x2122;" horiz-adv-x="887" d="M363 743v-136l-25 -1q-11 104 -63 104h-41v-244q0 -15 36 -15v-24h-125v24q37 0 37 15v244h-42q-29 0 -43 -25.5t-20 -78.5l-26 1v136h312zM838 743v-24q-37 0 -37 -15v-238q0 -15 37 -15v-24h-126v24q36 0 36 15v206l-104 -245h-46l-104 245v-206q0 -15 37 -15v-24h-108 v24q37 0 37 15v238q0 15 -37 15v24h100l109 -256l110 256h96z" />
<glyph unicode="&#x25fc;" horiz-adv-x="510" d="M0 510h510v-510h-510v510z" />
<glyph unicode="&#xfb01;" horiz-adv-x="794" d="M379 509l-5 -58q-116 11 -156 11v-383q0 -45 135 -45v-34h-313v34q88 0 88 45v383h-89v34q44 9 87 13v129q0 142 165 142q72 0 119 -29.5t47 -78.5q0 -27 -14 -46t-46 -19q-31 0 -46.5 16.5t-15.5 38.5q0 46 52 55q-23 27 -96 27q-32 0 -53 -20.5t-21 -61.5v-153h162z M667 509v-430q0 -45 89 -45v-34h-267v34q88 0 88 45v351q0 46 -88 46v33h178zM683 684q0 -29 -20.5 -50t-49.5 -21t-50 21t-21 50t21 49.5t50 20.5t49.5 -20.5t20.5 -49.5z" />
<glyph unicode="&#xfb02;" horiz-adv-x="816" d="M379 509l-5 -58q-116 11 -156 11v-383q0 -45 135 -45v-34h-313v34q88 0 88 45v383h-89v34q44 9 87 13v129q0 142 165 142q72 0 119 -29.5t47 -78.5q0 -27 -14 -46t-46 -19q-31 0 -46.5 16.5t-15.5 38.5q0 46 52 55q-23 27 -96 27q-32 0 -53 -20.5t-21 -61.5v-153h162z M689 770v-691q0 -45 89 -45v-34h-267v34q88 0 88 45v613q0 45 -88 45v33h178z" />
</font>
</defs>
</svg>
